<?xml version="1.0" standalone="no"?>
<!DOCTYPE svg PUBLIC "-//W3C//DTD SVG 20010904//EN"
 "http://www.w3.org/TR/2001/REC-SVG-20010904/DTD/svg10.dtd">
<svg version="1.0" xmlns="http://www.w3.org/2000/svg"
 width="48.000000pt" height="48.000000pt" viewBox="0 0 48.000000 48.000000"
 preserveAspectRatio="xMidYMid meet">
<metadata>
Created by potrace 1.11, written by Peter Selinger 2001-2013
</metadata>
<g transform="translate(0.000000,48.000000) scale(0.100000,-0.100000)"
fill="#000000" stroke="none">
<path d="M170 473 c-39 -8 -104 -58 -135 -105 -27 -39 -30 -51 -30 -128 0 -79
2 -88 32 -131 17 -25 51 -58 75 -74 39 -27 51 -30 128 -30 77 0 89 3 128 30
24 16 58 49 75 74 30 43 32 52 32 131 0 79 -2 88 -32 131 -48 69 -101 100
-181 104 -37 2 -78 1 -92 -2z m141 -119 c79 -49 91 -147 26 -212 -64 -64 -171
-52 -218 25 -26 42 -23 121 7 155 55 62 120 73 185 32z"/>
<path d="M180 292 c0 -4 6 -14 12 -20 10 -10 8 -14 -10 -18 -25 -7 -30 -24 -7
-24 9 0 12 -6 9 -15 -7 -18 17 -20 34 -3 9 9 17 7 36 -11 26 -24 48 -12 26 14
-10 12 -9 15 8 15 12 0 24 5 27 10 4 6 -7 10 -26 10 -30 0 -31 1 -16 18 10 10
17 22 17 25 0 13 -23 7 -42 -10 -17 -15 -19 -15 -36 0 -20 18 -32 22 -32 9z"/>
</g>
</svg>
