<svg xmlns="http://www.w3.org/2000/svg" xmlns:xlink="http://www.w3.org/1999/xlink" viewBox="0 0 614 1000" height="1000" width="614"><defs><symbol id="a"><path d="M44.555 74.093c0 1.48.72 2.223 2.164 2.223 1.446 0 2.17-.742 2.17-2.223V54.077h2.222v20.017c0 1.48.725 2.223 2.17 2.223 1.445 0 2.17-.742 2.17-2.223v-34.1h1.057v12.283c0 .777.265 1.342.794 1.694.527.354 1.072.354 1.64 0 .564-.35.845-.916.845-1.693V39.04c0-1.412-.48-2.505-1.43-3.282-.95-.777-2.272-1.167-3.966-1.167h-8.678c-1.623 0-2.943.355-3.965 1.06-1.022.707-1.536 1.8-1.536 3.285V53.02c0 .633.283 1.092.848 1.374.564.283 1.11.283 1.64 0 .526-.282.794-.74.794-1.375V39.993h1.06v34.1zM45.398 28.185c0 1.237.44 2.295 1.32 3.177.885.882 1.94 1.325 3.174 1.325 1.238 0 2.293-.443 3.18-1.325.88-.88 1.32-1.96 1.32-3.23 0-1.2-.44-2.242-1.32-3.123-.887-.883-1.94-1.326-3.18-1.326-1.232 0-2.29.443-3.174 1.325-.88.88-1.32 1.94-1.32 3.175z"/></symbol><path d="M44.75 23.65q1.35 0 2.1.55.8.65 1.15 1.7l.45 2.15.2 11.4q0 2.4.6 4.25.65 2.1 1.15 3.05.65 1.1 1.8 1.95.8.6 1.7 1.05-.95.35-1.8 1.05-.9.7-1.75 2-.5.85-1.15 3-.55 1.75-.55 4l-.15 9.65-.15 2.3L47.8 74q-.35.95-1.15 1.65-.75.6-1.9.6h-2.9V80h4.05q2.85 0 4.65-2.15 1.8-2.15 1.8-5.75V61.65q0-3.5 1.6-7.1.6-1.3 1.7-2.1.45-.35 1.15-.55.25-.1 1.35-.3v-3.45q-.95-.2-1.35-.4-.7-.2-1.15-.7-1.1-1-1.75-2.45-.7-1.35-.95-3.15l-.7-13.75q0-3.3-1.6-5.5t-4.9-2.2h-3.9v3.65h2.9z" id="b"/></defs><path fill="none" stroke="#2ca02c" stroke-width=".968" stroke-linecap="square" stroke-miterlimit="0" d="M.484.485h613.032v999.032H.484z"/><path fill="#f4ffbd" d="M2 769.845h270V997.43H2z"/><path fill="#bcfffd" d="M2 186h270v584H2z"/><g transform="translate(-27 149.897)" fill="#2c2ca0"><use xlink:href="#a" transform="translate(80.746 123.145)" width="100%" height="100%"/><use xlink:href="#a" width="100%" height="100%" transform="translate(46.407 123.145)"/><use xlink:href="#a" width="100%" height="100%" transform="translate(149.424 123.145)"/><use xlink:href="#a" width="100%" height="100%" transform="translate(218.102 123.145)"/><use xlink:href="#a" width="100%" height="100%" transform="translate(12.067 123.145)"/><use xlink:href="#a" width="100%" height="100%" transform="translate(183.763 123.145)"/><use xlink:href="#a" width="100%" height="100%" transform="translate(115.085 123.145)"/><use xlink:href="#a" transform="translate(80.746 182.804)" width="100%" height="100%"/><use xlink:href="#a" width="100%" height="100%" transform="translate(46.407 182.804)"/><use xlink:href="#a" width="100%" height="100%" transform="translate(149.424 182.804)"/><use xlink:href="#a" width="100%" height="100%" transform="translate(218.102 182.804)"/><use xlink:href="#a" width="100%" height="100%" transform="translate(12.067 182.804)"/><use xlink:href="#a" width="100%" height="100%" transform="translate(183.763 182.804)"/><use xlink:href="#a" width="100%" height="100%" transform="translate(115.085 182.804)"/><use xlink:href="#a" transform="translate(80.746 242.462)" width="100%" height="100%"/><use xlink:href="#a" width="100%" height="100%" transform="translate(46.407 242.462)"/><use xlink:href="#a" width="100%" height="100%" transform="translate(149.424 242.462)"/><use xlink:href="#a" width="100%" height="100%" transform="translate(218.102 242.462)"/><use xlink:href="#a" width="100%" height="100%" transform="translate(12.067 242.462)"/><use xlink:href="#a" width="100%" height="100%" transform="translate(183.763 242.462)"/><use xlink:href="#a" width="100%" height="100%" transform="translate(115.085 242.462)"/><use xlink:href="#a" transform="translate(80.746 302.12)" width="100%" height="100%"/><use xlink:href="#a" width="100%" height="100%" transform="translate(46.407 302.12)"/><use xlink:href="#a" width="100%" height="100%" transform="translate(149.424 302.12)"/><use xlink:href="#a" width="100%" height="100%" transform="translate(218.102 302.12)"/><use xlink:href="#a" width="100%" height="100%" transform="translate(12.067 302.12)"/><use xlink:href="#a" width="100%" height="100%" transform="translate(183.763 302.12)"/><use xlink:href="#a" width="100%" height="100%" transform="translate(115.085 302.12)"/><use xlink:href="#a" transform="translate(80.746 361.78)" width="100%" height="100%"/><use xlink:href="#a" width="100%" height="100%" transform="translate(46.407 361.78)"/><use xlink:href="#a" width="100%" height="100%" transform="translate(149.424 361.78)"/><use xlink:href="#a" width="100%" height="100%" transform="translate(218.102 361.78)"/><use xlink:href="#a" width="100%" height="100%" transform="translate(12.067 361.78)"/><use xlink:href="#a" width="100%" height="100%" transform="translate(183.763 361.78)"/><use xlink:href="#a" width="100%" height="100%" transform="translate(115.085 361.78)"/><use xlink:href="#a" transform="translate(80.746 421.44)" width="100%" height="100%"/><use xlink:href="#a" width="100%" height="100%" transform="translate(46.407 421.44)"/><use xlink:href="#a" width="100%" height="100%" transform="translate(149.424 421.44)"/><use xlink:href="#a" width="100%" height="100%" transform="translate(12.067 421.44)"/><use xlink:href="#a" width="100%" height="100%" transform="translate(183.763 421.44)"/><use xlink:href="#a" width="100%" height="100%" transform="translate(115.085 421.44)"/><use xlink:href="#a" transform="translate(80.746 481.097)" width="100%" height="100%"/><use xlink:href="#a" width="100%" height="100%" transform="translate(46.407 481.097)"/><use xlink:href="#a" width="100%" height="100%" transform="translate(12.067 481.097)"/><use xlink:href="#a" width="100%" height="100%" transform="translate(115.085 481.097)"/><use xlink:href="#a" transform="translate(80.746 540.756)" width="100%" height="100%"/><use xlink:href="#a" width="100%" height="100%" transform="translate(46.407 540.756)"/><use xlink:href="#a" width="100%" height="100%" transform="translate(12.067 600.415)"/><use xlink:href="#a" width="100%" height="100%" transform="translate(115.085 540.756)"/><use xlink:href="#a" transform="translate(80.746 600.415)" width="100%" height="100%"/><use xlink:href="#a" width="100%" height="100%" transform="translate(46.407 600.415)"/><use xlink:href="#a" width="100%" height="100%" transform="translate(12.067 660.074)"/><use xlink:href="#a" width="100%" height="100%" transform="translate(115.085 600.415)"/><use xlink:href="#a" transform="translate(80.746 660.074)" width="100%" height="100%"/><use xlink:href="#a" width="100%" height="100%" transform="translate(46.407 660.074)"/><use xlink:href="#a" width="100%" height="100%" transform="translate(12.067 540.756)"/></g><g transform="translate(-27 149.897)" fill="#a02c2c"><use xlink:href="#a" width="100%" height="100%" transform="translate(218.102 421.44)"/><use xlink:href="#a" width="100%" height="100%" transform="translate(149.424 481.097)"/><use xlink:href="#a" width="100%" height="100%" transform="translate(218.102 481.097)"/><use xlink:href="#a" width="100%" height="100%" transform="translate(183.763 481.097)"/><use xlink:href="#a" width="100%" height="100%" transform="translate(149.424 540.756)"/><use xlink:href="#a" width="100%" height="100%" transform="translate(218.102 540.756)"/><use xlink:href="#a" width="100%" height="100%" transform="translate(183.763 540.756)"/><use xlink:href="#a" width="100%" height="100%" transform="translate(149.424 600.415)"/><use xlink:href="#a" width="100%" height="100%" transform="translate(218.102 600.415)"/><use xlink:href="#a" width="100%" height="100%" transform="translate(183.763 600.415)"/><use xlink:href="#a" width="100%" height="100%" transform="translate(149.424 660.074)"/><use xlink:href="#a" width="100%" height="100%" transform="translate(218.102 660.074)"/><use xlink:href="#a" width="100%" height="100%" transform="translate(183.763 660.074)"/><use xlink:href="#a" width="100%" height="100%" transform="translate(115.085 660.074)"/></g><text y="80.177" x="161.768" style="text-align:center" color="#2ca02c" font-weight="bold" font-size="40" font-family="serif" text-anchor="middle" fill="#007874" transform="translate(-26.5 149.897)"><tspan style="text-align:center" y="80.177" x="161.768" font-size="30">Căn cứ DAO</tspan><tspan style="text-align:center" y="127.364" x="161.768">4,870</tspan></text><text y="785.13" x="156.705" style="line-height:125%;-inkscape-font-specification:'serif, Bold';text-align:start" color="#2ca02c" font-weight="bold" font-size="40" font-family="serif" fill="#647800" transform="translate(-26.5 149.897)"><tspan y="785.13" x="156.705" style="text-align:center" text-anchor="middle">2,098</tspan><tspan y="825.443" x="156.705" style="text-align:center" font-size="30" text-anchor="middle">Tòa đại sứ</tspan></text><g fill="#a02c2c"><use xlink:href="#b" width="100%" height="100%" transform="matrix(2.05775 0 0 2.17816 211.147 559.8)"/><text style="line-height:125%;-inkscape-font-specification:'serif, Bold';text-align:center" x="425.934" y="628.014" color="#2ca02c" font-weight="bold" font-size="30" font-family="serif" text-anchor="middle" transform="translate(-17 37.897)"><tspan x="425.934" y="628.014" font-size="40">1,373</tspan><tspan style="-inkscape-font-specification:serif" x="425.934" y="663.484" font-weight="normal" font-size="25">NGƯỜI MỸ</tspan></text></g><g fill="#2c2ca0"><use xlink:href="#b" width="100%" height="100%" transform="matrix(2.77955 0 0 3.2701 181.732 266.477)"/><text style="line-height:125%;-inkscape-font-specification:'serif, Bold';text-align:center" x="423.05" y="632.668" color="#2ca02c" font-weight="bold" font-size="30" font-family="serif" text-anchor="middle" transform="matrix(1.35077 0 0 1.50132 -126.442 -517.065)"><tspan y="632.668" x="423.05" font-size="35.111">5,595</tspan><tspan style="-inkscape-font-specification:serif" y="662.952" x="423.05" font-weight="normal" font-size="21.067">NGƯỜI VIỆT</tspan></text><text transform="matrix(1.42406 0 0 1.42406 -126.442 -517.065)" y="721.568" x="326.988" style="line-height:120.00000477%;-inkscape-font-specification:'Segoe UI, Normal';text-align:start" font-size="14.044" font-family="Segoe UI" letter-spacing="0" word-spacing="0"><tspan style="line-height:120.00000477%;-inkscape-font-specification:'Segoe UI, Normal';text-align:start" y="721.568" x="326.988">(gồm 85 người nước khác)</tspan></text></g><text y="6.645" x="333.915" style="line-height:120.00000477%;-inkscape-font-specification:'sans-serif, Bold';text-align:start" font-weight="bold" font-size="35" font-family="sans-serif" letter-spacing="0" word-spacing="0" fill="#2ca02c" transform="translate(-26.5 149.897)"><tspan y="6.645" x="333.915"><tspan style="-inkscape-font-specification:serif;text-align:start" y="6.645" x="333.915" font-weight="normal" font-size="25" font-family="serif">NGƯỜI ĐƯỢC DI TẢN</tspan></tspan><tspan y="36.645" x="339.97"><tspan style="-inkscape-font-specification:serif;text-align:start" y="36.645" x="339.97" font-weight="normal" font-size="25" font-family="serif">BẰNG TRỰC THĂNG</tspan></tspan><tspan y="66.645" x="337.114"><tspan style="-inkscape-font-specification:serif;text-align:start" y="66.645" x="337.114" font-weight="normal" font-size="25" font-family="serif">TRONG GẦN 20 GIỜ</tspan></tspan></text><text y="-44.876" x="385.225" style="line-height:120.00000477%;-inkscape-font-specification:'Segoe UI, Bold';text-align:start" font-weight="bold" font-size="40" font-family="Segoe UI" letter-spacing="0" word-spacing="0" fill="#2ca02c" transform="translate(-26.5 149.897)"><tspan style="-inkscape-font-specification:'serif Bold'" y="-44.876" x="385.225" font-size="60" font-family="serif">6,968</tspan></text><text y="-70.899" x="87.152" style="line-height:120.00000477%;-inkscape-font-specification:'serif, Bold';text-align:start" font-weight="bold" font-size="60" font-family="serif" letter-spacing="0" word-spacing="0" fill="#2ca02c" transform="translate(-26.5 149.897)"><tspan y="-70.899" x="87.152"><tspan y="-70.899" x="87.152">KẾT </tspan></tspan><tspan y="1.101" x="87.152"><tspan y="1.101" x="87.152">QUẢ</tspan></tspan></text><text y="714.938" x="328.345" style="line-height:120.00000477%;-inkscape-font-specification:'Segoe UI, Bold';text-align:start" font-weight="bold" font-size="40" font-family="Segoe UI" letter-spacing="0" word-spacing="0" fill="#2ca02c" transform="translate(-26.5 149.897)"><tspan style="-inkscape-font-specification:serif" y="660" x="328.345" font-size="20" font-family="serif">TRỰC THĂNG &amp; TÀU </tspan><tspan x="328.345" y="685" style="-inkscape-font-specification:serif" font-size="20" font-family="serif">CHỞ NGƯỜI:</tspan><tspan x="328.345" y="714.938" style="-inkscape-font-specification:serif" font-weight="normal" font-size="25" font-family="serif">28 CH-46</tspan><tspan style="-inkscape-font-specification:serif" y="744.938" x="328.345" font-weight="normal" font-size="25" font-family="serif">40 CH-53</tspan><tspan style="-inkscape-font-specification:serif" y="774.938" x="328.345" font-weight="normal" font-size="25" font-family="serif">12 HH-53C</tspan><tspan style="-inkscape-font-specification:serif" y="804.938" x="328.345" font-weight="normal" font-size="25" font-family="serif">40 TÀU ĐÁP</tspan><tspan x="328.345" y="835" style="-inkscape-font-specification:serif" font-weight="normal" font-size="20" font-family="serif">(chưa kể tàu &amp; máy bay yểm trợ)</tspan></text><path d="M577.34 941.874h-19.078v-6.744h-6.42l2.155-9.67h-5.402l-2.154 9.67h-5.984l2.15-9.67h-5.402l-2.153 9.67h-5.985l2.153-9.67h-5.403l-2.153 9.67h-5.986l2.153-9.67h-5.405l-2.153 9.67h-6.32l-1.915 6.744H480.81s5.12 11.7 9.995 11.7h85.562c9.395 0 .973-11.7.973-11.7z" fill="#2ca02c"/><g fill="#2ca02c"><path d="M520.07 875.176c.582 0 1.053-.472 1.053-1.054 0-.582-.47-1.054-1.054-1.054h-14.863c-.583 0-1.054.472-1.054 1.054 0 .582.47 1.054 1.054 1.054h14.862zM544.998 888.72h-34.68c-.582 0-1.053.472-1.053 1.054 0 .582.47 1.054 1.054 1.054h34.678c.583 0 1.054-.472 1.054-1.054 0-.582-.472-1.054-1.054-1.054z"/><path d="M559.246 889.73l-.007-.007-3.186-3.732c-1.12-6.29-4.25-8.12-7.05-8.404v-3.253c0-.582-.472-1.054-1.055-1.054-.584 0-1.055.47-1.055 1.053v3.29c-3.472.412-5.608 2.46-6.24 5.986h-27.766c-2.533-5.284-5.955-7.898-10.055-7.834v-2.918c0-.582-.47-1.054-1.054-1.054-.582 0-1.053.472-1.053 1.054v3.08c-3.858.587-6.27 2.313-7.17 5.136-.023.07-.038.14-.045.214l-1.265 12.438c-.032.318.08.633.31.857l7.272 7.167c.197.194.462.303.74.303h56.97c.045 0 .09-.003.134-.008 3.155-.4 5.156-1.513 5.965-3.358.49-1.293.642-3.292-1.396-5.432l-2.998-3.524zm-3.05-.325l-3.504.08v-1.977h1.886l1.618 1.897zm5.492 8.483c-.465 1.06-1.884 1.753-4.215 2.058H501l-6.605-6.51 1.202-11.82c.702-2.048 2.612-3.242 5.836-3.648.155-.004.312-.022.466-.053l.39-.003c3.72-.316 6.652 2.036 8.964 7.18.17.38.547.623.96.623h29.357c.544 0 .997-.41 1.05-.95.333-3.395 2.034-5.02 5.353-5.11h.01c1.14-.033 4.434-.11 5.798 5.744h-2.142c-.583 0-1.054.47-1.054 1.053v4.11c0 .285.114.556.317.755.205.198.47.31.763.3l6.297-.146 2.717 3.192c1.432 1.506 1.25 2.59 1.01 3.224zM550.923 907.894c.606-.55.926-1.257.926-2.045 0-.77-.31-1.483-.89-2.063-1.08-1.08-2.8-1.167-4.106.035-.525.576-.802 1.277-.802 2.027 0 .768.29 1.464.835 2.01.582.58 1.295.888 2.064.888.788 0 1.495-.32 1.973-.854zm-2.763-2.045c0-.23.078-.417.182-.54.192-.174.38-.25.608-.25.21 0 .365.064.52.218.24.24.27.432.27.572 0 .14-.028.297-.306.556-.187.206-.343.234-.484.234-.14 0-.332-.03-.572-.27-.153-.154-.218-.31-.218-.52z"/><path d="M544.787 876.388c.583 0 1.054-.472 1.054-1.054 0-.582-.47-1.054-1.053-1.054h-10.752c-.583 0-1.054.472-1.054 1.054 0 .582.472 1.054 1.055 1.054h10.752zM482.86 875.176h14.863c.583 0 1.054-.472 1.054-1.054 0-.582-.47-1.054-1.054-1.054H482.86c-.582 0-1.053.472-1.053 1.054 0 .582.47 1.054 1.054 1.054zM510.448 907.893c.605-.55.924-1.257.924-2.044 0-.77-.307-1.482-.887-2.063-1.08-1.08-2.8-1.168-4.11.036-.523.577-.8 1.277-.8 2.026 0 .767.29 1.462.835 2.01.582.58 1.295.888 2.064.888.79 0 1.496-.32 1.974-.855zm-2.764-2.044c0-.23.078-.417.182-.54.192-.174.38-.25.608-.25.212 0 .366.064.52.217.24.24.27.433.27.573 0 .14-.028.298-.305.556-.188.206-.345.234-.486.234-.14 0-.333-.03-.57-.27-.155-.155-.22-.31-.22-.52zM562.126 876.388c.583 0 1.054-.472 1.054-1.054 0-.582-.47-1.054-1.054-1.054h-10.752c-.583 0-1.054.472-1.054 1.054 0 .582.47 1.054 1.054 1.054h10.752z"/></g></svg>