<?xml version="1.0" encoding="UTF-8" standalone="no"?>
<!-- Created with Inkscape (http://www.inkscape.org/) -->

<svg
   xmlns:dc="http://purl.org/dc/elements/1.1/"
   xmlns:cc="http://creativecommons.org/ns#"
   xmlns:rdf="http://www.w3.org/1999/02/22-rdf-syntax-ns#"
   xmlns:svg="http://www.w3.org/2000/svg"
   xmlns="http://www.w3.org/2000/svg"
   xmlns:sodipodi="http://sodipodi.sourceforge.net/DTD/sodipodi-0.dtd"
   xmlns:inkscape="http://www.inkscape.org/namespaces/inkscape"
   width="180"
   height="180"
   id="svg2"
   version="1.1"
   inkscape:version="0.48.4 r9939"
   sodipodi:docname="icon.svg"
   inkscape:export-filename="C:\Users\thith\Documents\GitHub\thith.github.io\app\1\apple_iconicon.png"
   inkscape:export-xdpi="98.181816"
   inkscape:export-ydpi="98.181816">
  <defs
     id="defs4">
    <marker
       markerWidth="182.85715"
       markerHeight="171.42857"
       orient="auto"
       id="marker3001">
      <path
         inkscape:connector-curvature="0"
         id="path2997"
         d="m -91.42857,-5e-6 0,-85.71428 91.42857,0 91.42857,0 0,85.71428 0,85.71429 -91.42857,0 -91.42857,0 0,-85.71429 z"
         style="fill:#008080" />
    </marker>
  </defs>
  <sodipodi:namedview
     id="base"
     pagecolor="#ffffff"
     bordercolor="#666666"
     borderopacity="1.0"
     inkscape:pageopacity="0.0"
     inkscape:pageshadow="2"
     inkscape:zoom="2.51"
     inkscape:cx="93.601964"
     inkscape:cy="95.313292"
     inkscape:document-units="px"
     inkscape:current-layer="layer1"
     showgrid="false"
     showguides="false"
     inkscape:snap-global="false"
     fit-margin-top="0"
     fit-margin-left="0"
     fit-margin-right="0"
     fit-margin-bottom="0"
     inkscape:window-width="1366"
     inkscape:window-height="705"
     inkscape:window-x="-8"
     inkscape:window-y="-8"
     inkscape:window-maximized="1">
    <inkscape:grid
       type="xygrid"
       id="grid2999"
       empspacing="5"
       visible="true"
       enabled="true"
       snapvisiblegridlinesonly="true"
       originx="0px"
       originy="1.4494629e-005px" />
  </sodipodi:namedview>
  <metadata
     id="metadata7">
    <rdf:RDF>
      <cc:Work
         rdf:about="">
        <dc:format>image/svg+xml</dc:format>
        <dc:type
           rdf:resource="http://purl.org/dc/dcmitype/StillImage" />
        <dc:title />
      </cc:Work>
    </rdf:RDF>
  </metadata>
  <g
     inkscape:label="Layer 1"
     inkscape:groupmode="layer"
     id="layer1"
     transform="translate(0,-872.3622)">
    <rect
       style="fill:#00e600;fill-opacity:1"
       id="rect3009"
       width="180"
       height="180"
       x="1"
       y="0"
       transform="translate(0,872.3622)" />
    <rect
       style="fill:#00e6e6;fill-opacity:1;fill-rule:evenodd;stroke:#000000;stroke-width:0.33165798px;stroke-linecap:butt;stroke-linejoin:miter;stroke-opacity:1"
       id="rect2989"
       width="59.668343"
       height="59.668343"
       x="20.165829"
       y="972.52802" />
    <rect
       style="fill:#00e600;fill-opacity:1;fill-rule:evenodd;stroke:#000000;stroke-width:0.33199999;stroke-linecap:butt;stroke-linejoin:miter;stroke-miterlimit:4;stroke-opacity:1;stroke-dasharray:none"
       id="rect2991"
       width="59.668133"
       height="59.668133"
       x="18.166"
       y="892.52808" />
    <path
       style="fill:#e600e6;fill-opacity:1;stroke:#000000;stroke-width:0.33017284;stroke-miterlimit:4;stroke-opacity:1;stroke-dasharray:none"
       d="m 100.16508,1002.3622 0,-29.83487 29.83492,0 29.83492,0 0,29.83487 0,29.835 -29.83492,0 -29.83492,0 z"
       id="path2993"
       inkscape:connector-curvature="0"
       sodipodi:nodetypes="ccccccccc" />
    <path
       style="fill:#e6e600;fill-opacity:1;stroke:#000000;stroke-width:0.33017302;stroke-miterlimit:4;stroke-opacity:1;stroke-dasharray:none"
       d="m 100.16508,922.3622 0,-29.83491 29.83492,0 29.83492,0 0,29.83491 0,29.83492 -29.83492,0 -29.83492,0 z"
       id="path2995"
       inkscape:connector-curvature="0"
       sodipodi:nodetypes="ccccccccc" />
    <path
       style="fill:#ffffff;fill-opacity:1"
       d="m 0,962.36217 0,-90 90,0 90,0 0,90 0,90.00003 -90,0 -90,0 0,-90.00003 z m 79.441341,40.00003 0,-30.00003 -30.670392,0 -30.67039,0 0,30.00003 0,30 30.67039,0 30.670392,0 0,-30 z m 81.215859,-0.25 -0.26614,-30.25003 -30.92179,-0.26445 -30.921784,-0.26445 0,30.51443 0,30.5145 31.187924,0 31.18794,0 -0.26615,-30.25 z m -83.227032,-79.75003 0,-30 -30.670392,0 -30.67039,0 0,30 0,30 30.67039,0 30.670392,0 0,-30 z m 83.227032,-0.25 -0.26614,-30.25 -30.92179,-0.26445 -30.921784,-0.26445 0,30.51445 0,30.51445 31.187924,0 31.18794,0 -0.26615,-30.25 z"
       id="path3011"
       inkscape:connector-curvature="0" />
  </g>
</svg>
