<?xml version="1.0" encoding="UTF-8" standalone="no"?>
<!-- Created with Inkscape (http://www.inkscape.org/) -->

<svg
   xmlns:dc="http://purl.org/dc/elements/1.1/"
   xmlns:cc="http://creativecommons.org/ns#"
   xmlns:rdf="http://www.w3.org/1999/02/22-rdf-syntax-ns#"
   xmlns:svg="http://www.w3.org/2000/svg"
   xmlns="http://www.w3.org/2000/svg"
   xmlns:xlink="http://www.w3.org/1999/xlink"
   version="1.2"
   width="60"
   height="60"
   id="svg2993">
  <defs
     id="defs2995">
    <linearGradient
       id="linearGradient5284">
      <stop
         id="stop5286"
         style="stop-color:#a02c2c;stop-opacity:1"
         offset="0" />
      <stop
         id="stop5292"
         style="stop-color:#cc7373;stop-opacity:1"
         offset="0.77777779" />
      <stop
         id="stop5288"
         style="stop-color:#dec8c8;stop-opacity:1"
         offset="1" />
    </linearGradient>
    <linearGradient
       id="linearGradient3753">
      <stop
         id="stop3755"
         style="stop-color:#ffffff;stop-opacity:1"
         offset="0" />
      <stop
         id="stop3761"
         style="stop-color:#fafafa;stop-opacity:1"
         offset="0.5" />
      <stop
         id="stop3763"
         style="stop-color:#dddddd;stop-opacity:1"
         offset="0.80000001" />
      <stop
         id="stop3757"
         style="stop-color:#bbbbbb;stop-opacity:1"
         offset="1" />
    </linearGradient>
    <radialGradient
       cx="385.6196"
       cy="318.11801"
       r="144.42725"
       fx="385.6196"
       fy="318.11801"
       id="radialGradient3759"
       xlink:href="#linearGradient3753"
       gradientUnits="userSpaceOnUse"
       gradientTransform="matrix(1,0,0,1.0031617,0,-1.0057907)" />
    <linearGradient
       x1="199.99979"
       y1="316.64789"
       x2="568.57166"
       y2="316.64789"
       id="linearGradient5296"
       xlink:href="#linearGradient5284"
       gradientUnits="userSpaceOnUse" />
    <radialGradient
       cx="385.6196"
       cy="318.11801"
       r="144.42725"
       fx="385.6196"
       fy="318.11801"
       id="radialGradient3759-1"
       xlink:href="#linearGradient3753-7"
       gradientUnits="userSpaceOnUse"
       gradientTransform="matrix(1,0,0,1.0031617,0,-1.0057907)" />
    <linearGradient
       id="linearGradient3753-7">
      <stop
         id="stop3755-4"
         style="stop-color:#ffffff;stop-opacity:1"
         offset="0" />
      <stop
         id="stop3761-0"
         style="stop-color:#fafafa;stop-opacity:1"
         offset="0.5" />
      <stop
         id="stop3763-9"
         style="stop-color:#dddddd;stop-opacity:1"
         offset="0.80000001" />
      <stop
         id="stop3757-4"
         style="stop-color:#bbbbbb;stop-opacity:1"
         offset="1" />
    </linearGradient>
    <radialGradient
       cx="385.6196"
       cy="318.11801"
       r="144.42725"
       fx="385.6196"
       fy="318.11801"
       id="radialGradient3807"
       xlink:href="#linearGradient3753-7"
       gradientUnits="userSpaceOnUse"
       gradientTransform="matrix(0.06942866,0,0,0.06941964,-11.837933,1015.3581)" />
  </defs>
  <metadata
     id="metadata2998">
    <rdf:RDF>
      <cc:Work
         rdf:about="">
        <dc:format>image/svg+xml</dc:format>
        <dc:type
           rdf:resource="http://purl.org/dc/dcmitype/StillImage" />
        <dc:title></dc:title>
      </cc:Work>
    </rdf:RDF>
  </metadata>
  <g
     transform="translate(5.0544574e-7,-992.375)"
     id="layer2"
     style="display:inline">
    <path
       d="m 59.070405,1022.3658 a 29.070072,29.064504 0 1 1 -58.14014298,0 29.070072,29.064504 0 1 1 58.14014298,0 z"
       id="path3840"
       style="fill:#cc7373;fill-opacity:1;fill-rule:nonzero;stroke:#a02c2c;stroke-width:1.85984349;stroke-linecap:round;stroke-linejoin:round;stroke-miterlimit:4;stroke-opacity:1;stroke-dasharray:none" />
    <path
       d="m 28.197167,1041.7001 c -8.173991,-0.9952 -14.647923,-6.4535 -16.880202,-14.232 -2.9251212,-10.1933 3.483188,-20.8834 14.18364,-23.6607 6.147342,-1.5957 12.890129,0.3524 17.805052,5.1439 6.379787,6.2197 7.65724,15.6833 3.151311,23.3455 -1.28799,2.1903 -4.086263,5.0285 -6.39728,6.4889 -3.205085,2.0257 -8.492589,3.3247 -11.862521,2.9144 z m 6.546207,-13.8063 c 0,-0.128 -1.074357,-1.4177 -2.387463,-2.8663 l -2.387457,-2.6339 4.271975,-0.2184 4.271972,-0.2183 -4.552577,-0.078 -4.552577,-0.078 2.866435,-2.8756 c 3.775457,-3.7878 3.693312,-4.3334 -0.110322,-0.7329 -1.637209,1.5496 -3.144613,2.8178 -3.34979,2.8178 -0.205177,0 -0.61303,-0.3415 -0.906341,-0.7588 -1.013102,-1.4412 -4.353584,-4.8274 -4.559771,-4.6219 -0.113761,0.1139 0.970987,1.5038 2.410567,3.0901 l 2.617421,2.8835 -3.858171,0.22 -3.858171,0.22 3.557104,0.076 3.557105,0.076 -2.154961,2.1744 c -2.779343,2.8045 -2.217225,2.8093 0.889656,0 l 2.403046,-2.167 2.420231,2.6195 c 1.331128,1.4407 2.479741,2.7718 2.552478,2.9579 0.148361,0.3794 0.859603,0.467 0.859603,0.106 z"
       id="path3015"
       style="fill:#ffffff;fill-opacity:1;fill-rule:nonzero;stroke:#a02c2c;stroke-width:1.58426118;stroke-linecap:round;stroke-linejoin:round;stroke-miterlimit:4;stroke-opacity:1;stroke-dasharray:none;display:inline" />
    <flowRoot
       transform="matrix(0.0802139,0,0,0.0802139,-16.06925,1009.4671)"
       id="flowRoot2996"
       xml:space="preserve"
       style="font-size:72px;font-style:normal;font-variant:normal;font-weight:normal;font-stretch:normal;line-height:125%;letter-spacing:0px;word-spacing:0px;fill:#000000;fill-opacity:1;stroke:none;display:inline;font-family:Shonar Bangla;-inkscape-font-specification:Shonar Bangla"><flowRegion
         id="flowRegion2998"><rect
           width="331.25"
           height="93.75"
           x="200"
           y="569.02887"
           id="rect3000"
           style="font-size:72px" /></flowRegion><flowPara
         id="flowPara3002" /></flowRoot>  </g>
</svg>
