<?xml version="1.0" encoding="UTF-8" standalone="no"?>
<!-- Generator: Adobe Illustrator 16.0.2, SVG Export Plug-In . SVG Version: 6.00 Build 0)  -->

<svg
   xmlns:dc="http://purl.org/dc/elements/1.1/"
   xmlns:cc="http://creativecommons.org/ns#"
   xmlns:rdf="http://www.w3.org/1999/02/22-rdf-syntax-ns#"
   xmlns:svg="http://www.w3.org/2000/svg"
   xmlns="http://www.w3.org/2000/svg"
   xmlns:sodipodi="http://sodipodi.sourceforge.net/DTD/sodipodi-0.dtd"
   xmlns:inkscape="http://www.inkscape.org/namespaces/inkscape"
   version="1.1"
   id="Layer_1"
   x="0px"
   y="0px"
   width="1190.55"
   height="399.66779"
   viewBox="0 0 1190.55 399.66778"
   enable-background="new 0 0 1190.55 841.89"
   xml:space="preserve"
   inkscape:version="0.91 r13725"
   sodipodi:docname="mimi_house_text.svg"
   inkscape:export-filename="C:\Users\ThiTH\Desktop\mimi_house.png"
   inkscape:export-xdpi="90.034012"
   inkscape:export-ydpi="90.034012"><metadata
   id="metadata1346"><rdf:RDF><cc:Work
       rdf:about=""><dc:format>image/svg+xml</dc:format><dc:type
         rdf:resource="http://purl.org/dc/dcmitype/StillImage" /><dc:title></dc:title></cc:Work></rdf:RDF></metadata><defs
   id="defs1344" /><sodipodi:namedview
   pagecolor="#ffffff"
   bordercolor="#666666"
   borderopacity="1"
   objecttolerance="10"
   gridtolerance="10"
   guidetolerance="10"
   inkscape:pageopacity="0"
   inkscape:pageshadow="2"
   inkscape:window-width="1440"
   inkscape:window-height="873"
   id="namedview1342"
   showgrid="false"
   inkscape:zoom="0.58"
   inkscape:cx="314.63687"
   inkscape:cy="194.90737"
   inkscape:window-x="-9"
   inkscape:window-y="-9"
   inkscape:window-maximized="1"
   inkscape:current-layer="Layer_1"
   fit-margin-top="0"
   fit-margin-left="0"
   fit-margin-right="0"
   fit-margin-bottom="0"
   inkscape:showpageshadow="false"
   showborder="false" /><rect
   width="1197.826"
   height="403.42599"
   id="rect3"
   x="0"
   y="-3.7581587"
   style="fill:#212d86;fill-opacity:1"
   inkscape:export-xdpi="90.034012"
   inkscape:export-ydpi="90.034012" /><line
   stroke-miterlimit="10"
   x1="413.36395"
   y1="18.741791"
   x2="413.36395"
   y2="374.46277"
   id="line5"
   style="fill:none;stroke:#efedc3;stroke-width:2;stroke-miterlimit:10" /><line
   stroke-miterlimit="10"
   x1="414.53394"
   y1="321.72577"
   x2="1175.3262"
   y2="321.72577"
   id="line7"
   style="fill:none;stroke:#efedc3;stroke-width:0.75;stroke-miterlimit:10" /><rect
   x="22.5"
   y="18.741791"
   stroke-miterlimit="10"
   width="1152.826"
   height="358.42599"
   id="rect9"
   style="fill:none;stroke:#efedc3;stroke-width:5;stroke-miterlimit:10" /><g
   id="g11"
   transform="translate(2.764001,-204.3612)"><g
     id="g13"><path
       d="m 439.033,537.99 c -4.697,0 -8.519,3.924 -8.519,8.748 0,1.936 1.111,4.881 3.497,9.271 1.629,2.992 3.25,5.525 3.319,5.629 l 1.17,1.824 c 0.118,0.186 0.319,0.293 0.532,0.293 0.215,0 0.414,-0.107 0.533,-0.293 l 1.173,-1.824 c 0.067,-0.1 1.675,-2.611 3.315,-5.629 2.387,-4.391 3.499,-7.336 3.499,-9.271 0.002,-4.824 -3.82,-8.748 -8.519,-8.748 z m 3.91,17.377 c -1.619,2.98 -3.205,5.449 -3.27,5.549 l -0.641,0.996 -0.639,-0.996 c -0.066,-0.104 -1.662,-2.594 -3.267,-5.549 -2.214,-4.064 -3.336,-6.973 -3.336,-8.629 0,-4.102 3.249,-7.438 7.241,-7.438 3.994,0 7.244,3.336 7.244,7.438 0.002,1.656 -1.121,4.564 -3.332,8.629 z"
       id="path15"
       inkscape:connector-curvature="0"
       style="fill:#efedc3" /><path
       d="m 439.033,541.832 c -2.604,0 -4.723,2.176 -4.723,4.85 0,2.674 2.119,4.85 4.723,4.85 2.605,0 4.727,-2.176 4.727,-4.85 0,-2.674 -2.121,-4.85 -4.727,-4.85 z m 0,8.386 c -1.9,0 -3.446,-1.586 -3.446,-3.537 0,-1.951 1.546,-3.535 3.446,-3.535 1.902,0 3.447,1.584 3.447,3.535 0,1.951 -1.544,3.537 -3.447,3.537 z"
       id="path17"
       inkscape:connector-curvature="0"
       style="fill:#efedc3" /></g></g><text
   transform="scale(1.0078194,0.99224126)"
   stroke-miterlimit="10"
   font-size="24.5214"
   letter-spacing="0.985"
   id="text19"
   style="font-size:20px;font-family:iCielBrandonText-Bold;letter-spacing:0.98500001;fill:#fafafa;stroke-miterlimit:10"
   x="456.12894"
   y="359.79504">Kiốt 2, 98 Ngụy Như Kon Tum, Hà Nội</text>

<g
   id="g21"
   transform="translate(-41.235999,-204.3612)"><path
     d="m 1029.564,564.402 c 0,0 2.564,0 2.564,-2.244 l 0,-20.184 c 0,-2.242 -2.564,-2.242 -2.564,-2.242 l -8.986,0 c 0,0 -2.57,0 -2.57,2.242 l 0,20.184 c 0,2.244 2.57,2.244 2.57,2.244 l 8.986,0 z m -4.498,-0.934 c -0.703,0 -1.281,-0.5 -1.281,-1.119 0,-0.617 0.578,-1.121 1.281,-1.121 0.713,0 1.289,0.504 1.289,1.121 0,0.619 -0.576,1.119 -1.289,1.119 z m -1.924,-22.369 c 0,-0.137 0.078,-0.246 0.17,-0.246 l 3.512,0 c 0.094,0 0.172,0.109 0.172,0.246 l 0,0.066 c 0,0.139 -0.078,0.246 -0.172,0.246 l -3.512,0 c -0.09,0 -0.17,-0.107 -0.17,-0.246 l 0,-0.066 z m -3.85,1.434 11.551,0 0,17.914 -11.551,0 0,-17.914 z"
     id="path23"
     inkscape:connector-curvature="0"
     style="fill:#efedc3" /></g><text
   transform="scale(1.0179882,0.98232965)"
   stroke-miterlimit="10"
   font-size="24.5214"
   letter-spacing="0.965"
   id="text25"
   style="font-size:20px;font-family:iCielBrandonText-Bold;letter-spacing:0.98500001;fill:#fafafa;stroke-miterlimit:10"
   x="984.24658"
   y="364.40759"
   inkscape:export-xdpi="90.034012"
   inkscape:export-ydpi="90.034012">096-111-4307</text>

<path
   d="M 428.553,119.2338"
   id="path27"
   inkscape:connector-curvature="0"
   style="fill:#f68e67" /><g
   id="g29"
   style="opacity:0.8"
   transform="translate(2.764001,-204.3612)"><path
     stroke-miterlimit="10"
     d="m 62.098,429.189 c 1.94,2.227 3.869,4.449 5.963,6.535 0.65,0.633 0.58,1.873 -0.043,2.494 l -6.263,6.289 c -0.586,0.578 -1.652,1.139 -1.628,1.98 0.012,0.383 2.581,2.229 3.016,2.607 1.939,1.674 7.112,4.441 6.814,7.771 -0.312,3.453 -6.162,6.621 -8.256,8.791 -0.449,0.469 -1.436,0.98 -1.384,1.811 0.037,0.57 2.808,2.957 3.194,3.338 2.115,2.055 4.357,3.885 6.698,5.625 0.882,0.646 1.022,1.891 0.278,2.738 -3.497,4.01 -7.003,8.027 -10.792,11.729 21.876,-1.264 43.976,-0.463 65.868,-0.453 23.545,0.008 47.084,0.1 70.625,0.25 0.187,-0.193 0.475,-0.252 0.721,0 54.911,0.35 109.816,1.066 164.717,2.174 -2.787,-3.115 -5.76,-5.973 -8.897,-8.711 -0.661,-0.57 -0.591,-1.986 0.043,-2.545 3.081,-2.709 5.953,-5.611 8.675,-8.711 -2.6,-2.809 -5.368,-5.385 -8.358,-7.717 -0.843,-0.654 -1.157,-2.027 -0.296,-2.859 3.396,-3.287 6.576,-6.762 9.598,-10.426 -2.825,-2.078 -5.648,-4.156 -8.473,-6.236 -1.193,-0.881 -3.289,-1.869 -3.428,-3.715 -0.235,-3.018 4.059,-6.535 7.564,-8.928 -20.996,0.43 -42.003,0.727 -62.994,0.855 -39.52,0.264 -79.039,0.008 -118.547,-0.764 -38.081,-0.746 -76.4,-1.043 -114.415,-3.922 z m 3.783,70.906 c -2.555,-1.564 -4.951,-3.926 -7.05,-6.293 -0.269,-0.014 -0.547,-0.02 -0.815,-0.035 -1.324,-0.07 -1.543,-1.715 -0.765,-2.438 -0.082,-0.238 -0.067,-0.518 0.12,-0.793 2.965,-4.309 6.258,-8.33 9.582,-12.32 -2.008,-1.535 -3.956,-3.164 -5.807,-4.945 -1.303,-1.254 -3.596,-2.932 -4.148,-4.785 -1.378,-4.703 5.771,-7.902 8.192,-10.738 1.47,-1.734 1.229,-1.109 -0.206,-2.52 -1.313,-1.307 -2.818,-2.451 -4.217,-3.656 -1.344,-1.162 -3.959,-2.555 -4.275,-4.67 -0.198,-1.342 0.521,-2.291 1.266,-3.24 1.924,-2.422 4.418,-4.574 6.691,-6.729 -2.518,-2.561 -4.928,-5.242 -6.987,-8.238 -1.017,-0.629 -0.809,-2.594 0.621,-2.578 0.057,0 0.114,0.002 0.163,0.002 0.318,-0.107 0.654,-0.113 0.97,0.006 21.878,0.258 43.748,1.512 65.62,2.18 78.994,2.449 158.044,2.824 237.063,1.15 0.99,-0.025 1.494,0.75 1.528,1.568 0.706,0.75 0.854,2.148 -0.252,2.844 -0.009,-0.002 -0.019,0.01 -0.019,0.01 0.881,0.678 1.74,1.387 2.612,2.074 1.107,0.869 2.312,1.676 3.204,2.801 0.319,0.389 -0.093,0.898 -0.5,0.686 -1.332,-0.697 -2.443,-1.865 -3.588,-2.869 -0.605,-0.518 -1.211,-1.047 -1.815,-1.574 -0.058,-0.053 -0.358,-0.307 -0.729,-0.615 -0.911,0.586 -1.884,1.232 -2.854,1.93 1.729,1.365 3.481,2.805 4.815,4.475 0.3,0.377 -0.114,1.021 -0.523,0.705 -1.779,-1.348 -3.383,-3.031 -5.035,-4.623 -0.884,0.688 -1.749,1.42 -2.533,2.211 1.809,1.502 3.743,2.863 5.393,4.527 0.312,0.314 -0.1,0.773 -0.441,0.592 -1.986,-1.09 -3.79,-2.871 -5.469,-4.557 -0.576,0.633 -1.117,1.295 -1.551,2.002 1.327,1.463 4.371,3.006 5.574,3.898 2.029,1.484 4.047,2.969 6.074,4.463 0.959,0.701 1.023,1.934 0.297,2.852 -0.313,0.398 -0.639,0.777 -0.951,1.166 1.631,1.092 3.24,2.416 4.297,3.979 0.226,0.324 -0.234,0.803 -0.527,0.561 -0.938,-0.793 -1.734,-1.783 -2.643,-2.613 -0.51,-0.488 -1.049,-0.932 -1.589,-1.365 -0.803,0.959 -1.617,1.918 -2.438,2.857 2.08,1.723 4.298,3.418 6.066,5.449 0.301,0.346 -0.112,0.93 -0.484,0.662 -2.159,-1.58 -4.09,-3.672 -6.022,-5.621 -0.872,0.979 -1.743,1.965 -2.645,2.914 1.932,2.115 4.011,3.992 6.089,5.945 0.32,0.305 -0.122,0.891 -0.473,0.635 -2.264,-1.707 -4.251,-3.863 -6.073,-6.102 -0.704,0.732 -1.399,1.455 -2.122,2.168 3,2.475 5.804,5.154 8.421,8.107 0.657,0.75 0.571,1.844 -0.046,2.57 -0.049,0.061 -0.107,0.121 -0.166,0.184 1.785,1.084 3.497,2.537 4.588,4.406 0.223,0.387 -0.322,0.814 -0.594,0.479 -1.372,-1.68 -2.689,-3.217 -4.416,-4.406 -0.646,0.744 -1.301,1.486 -1.967,2.211 2.021,1.881 4.139,3.748 5.867,5.881 0.292,0.357 -0.123,0.992 -0.492,0.676 -2.09,-1.787 -3.941,-3.984 -5.816,-6.088 -0.859,0.918 -1.729,1.824 -2.627,2.709 2.023,2.262 4.224,4.297 6.219,6.578 0.264,0.309 -0.101,0.816 -0.432,0.582 -2.408,-1.705 -4.478,-4.154 -6.336,-6.6 -0.76,0.742 -1.531,1.463 -2.322,2.186 2.906,2.898 5.52,6.068 7.926,9.469 0.357,0.49 0.309,1.061 0.08,1.48 0.156,0.396 0.176,0.852 0.084,1.277 0.396,0.416 0.781,0.85 1.186,1.262 1.141,1.148 2.419,2.166 3.523,3.352 0.374,0.412 -0.135,1.107 -0.592,0.785 -1.697,-1.154 -3.281,-2.758 -4.701,-4.438 -0.264,0.201 -0.581,0.342 -0.994,0.336 -2.063,-0.049 -4.127,-0.074 -6.179,-0.121 0.555,0.58 1.081,1.189 1.61,1.738 1.038,1.063 2.467,2.188 3.096,3.586 0.166,0.365 -0.185,0.703 -0.51,0.529 -1.293,-0.678 -2.342,-2.236 -3.32,-3.342 -0.732,-0.82 -1.563,-1.631 -2.248,-2.535 -1.938,-0.033 -3.875,-0.068 -5.814,-0.102 1.772,1.244 3.467,2.619 4.85,4.238 0.414,0.482 -0.158,1.291 -0.68,0.918 -2.236,-1.6 -4.295,-3.471 -6.464,-5.195 -2.454,-0.045 -4.901,-0.098 -7.358,-0.139 0.979,0.545 1.879,1.244 2.768,2.023 1.938,1.699 3.771,3.209 5.938,4.549 0.426,0.277 0.089,0.871 -0.331,0.803 -4.286,-0.762 -6.393,-6.109 -10.553,-7.414 -1.536,-0.025 -3.07,-0.053 -4.605,-0.08 2.508,2.043 5.179,4.078 7.236,6.557 0.301,0.357 -0.102,0.91 -0.49,0.664 -3.067,-1.918 -5.732,-4.779 -8.434,-7.25 -2.008,-0.035 -4.012,-0.078 -6.017,-0.105 2.912,2.496 5.963,4.764 8.894,7.227 0.426,0.359 0.049,1.09 -0.445,0.799 -3.553,-2.109 -6.822,-5.074 -9.802,-8.049 -1.853,-0.033 -3.704,-0.064 -5.556,-0.098 3.055,2.559 6.119,5.15 8.979,7.943 0.396,0.391 -0.165,1.139 -0.59,0.799 -3.446,-2.732 -6.715,-5.762 -9.954,-8.77 -1.611,-0.027 -3.224,-0.055 -4.835,-0.082 2.614,2.563 5.271,5.299 8.313,6.988 0.4,0.225 0.083,0.797 -0.29,0.719 -1.876,-0.355 -3.19,-1.992 -4.539,-3.311 -1.501,-1.461 -2.992,-2.939 -4.483,-4.406 -1.831,-0.033 -3.666,-0.063 -5.498,-0.098 2.381,2.219 4.779,4.436 6.955,6.865 0.311,0.35 -0.133,0.973 -0.493,0.666 -2.742,-2.328 -5.276,-4.959 -7.823,-7.553 -1.757,-0.021 -3.512,-0.061 -5.268,-0.078 0.725,0.818 1.468,1.617 2.243,2.377 1.668,1.645 3.721,2.902 5.283,4.637 0.236,0.252 -0.013,0.756 -0.347,0.613 -1.925,-0.797 -3.621,-2.523 -5.142,-4.012 -1.15,-1.139 -2.225,-2.357 -3.237,-3.637 -0.779,-0.014 -1.565,-0.031 -2.342,-0.041 -0.902,-0.008 -1.804,-0.021 -2.706,-0.031 2.256,2.195 4.637,4.373 6.571,6.859 0.289,0.377 -0.135,1.055 -0.543,0.713 -2.609,-2.221 -4.893,-5.012 -7.237,-7.59 -1.431,-0.016 -2.869,-0.027 -4.31,-0.047 2.23,2.6 4.729,4.629 7.348,6.85 0.389,0.328 0.051,0.965 -0.406,0.719 -3.07,-1.678 -5.764,-4.625 -7.89,-7.584 -1.498,-0.016 -3.005,-0.041 -4.511,-0.059 0.971,1.057 1.961,2.096 2.969,3.098 1.283,1.262 2.78,2.377 3.947,3.766 0.282,0.324 -0.092,0.838 -0.443,0.604 -1.441,-0.928 -2.666,-2.338 -3.863,-3.578 -1.188,-1.252 -2.314,-2.545 -3.404,-3.893 -1.432,-0.014 -2.861,-0.037 -4.29,-0.053 1.103,1.158 2.194,2.328 3.287,3.496 1.32,1.422 2.813,2.773 3.858,4.447 0.271,0.428 -0.287,0.986 -0.676,0.703 -1.545,-1.127 -2.802,-2.764 -4.111,-4.184 -1.365,-1.492 -2.723,-2.977 -4.066,-4.484 -1.814,-0.02 -3.619,-0.051 -5.422,-0.061 0.821,0.779 1.651,1.568 2.473,2.361 1.407,1.35 3.458,4.225 5.371,4.6 0.439,0.092 0.342,0.762 -0.016,0.877 -1.775,0.604 -3.225,-1.617 -4.396,-2.777 -1.678,-1.686 -3.356,-3.381 -5.025,-5.09 -1.477,-0.016 -2.955,-0.031 -4.434,-0.047 2.698,2.184 5.422,4.529 7.504,7.244 0.291,0.371 -0.104,1.004 -0.512,0.697 -3.087,-2.322 -5.867,-5.26 -8.729,-7.961 -2.167,-0.029 -4.347,-0.057 -6.515,-0.072 3.104,2.527 6.254,5.133 8.938,8.131 0.357,0.398 -0.145,1.113 -0.58,0.773 -3.541,-2.719 -6.787,-5.945 -10.152,-8.924 -1.871,-0.023 -3.731,-0.045 -5.603,-0.061 0.913,0.951 1.847,1.869 2.82,2.754 1.983,1.807 4.253,3.256 6.179,5.109 0.436,0.41 -0.145,1.002 -0.58,0.777 -3.654,-1.844 -7.048,-5.291 -9.916,-8.652 -1.719,-0.021 -3.436,-0.037 -5.154,-0.061 2.468,2.188 5.094,4.127 7.765,6.092 0.483,0.361 0.047,1.098 -0.466,0.816 -3.301,-1.723 -6.289,-4.205 -8.998,-6.916 -2.283,-0.021 -4.566,-0.051 -6.852,-0.066 2.612,2.705 5.461,5.043 8.336,7.475 0.406,0.35 0.049,1.027 -0.435,0.758 -3.536,-2.01 -6.594,-5.043 -9.282,-8.244 -2.053,-0.027 -4.098,-0.045 -6.15,-0.072 1.084,1.076 2.181,2.121 3.314,3.123 0.604,0.543 5.593,3.932 5.579,4.697 0.097,-0.568 0.874,-0.576 0.884,0.033 0.008,0.096 0.006,0.178 0.004,0.271 0.006,0.227 -0.16,0.402 -0.344,0.473 -1.662,0.59 -3.803,-2.045 -4.986,-3.059 -2.004,-1.736 -3.891,-3.592 -5.709,-5.549 -1.382,-0.004 -2.764,-0.029 -4.146,-0.029 2.28,2.348 4.741,4.473 7.031,6.842 0.356,0.369 -0.124,0.971 -0.522,0.707 -2.932,-1.93 -5.492,-4.756 -7.803,-7.563 -1.748,-0.02 -3.504,-0.043 -5.261,-0.051 0.995,1.322 2.038,2.584 3.228,3.723 1.492,1.422 3.211,2.449 4.732,3.789 0.274,0.242 -0.031,0.754 -0.347,0.637 -3.422,-1.322 -6.537,-4.879 -8.544,-8.152 -1.737,-0.02 -3.463,-0.043 -5.2,-0.051 2.677,2.223 5.41,4.518 7.784,7.072 0.226,0.242 -0.078,0.662 -0.345,0.471 -1.685,-1.271 -3.225,-2.732 -4.782,-4.18 -0.916,-0.857 -1.842,-1.713 -2.748,-2.578 -0.275,-0.254 -0.549,-0.527 -0.822,-0.791 -1.957,-0.014 -3.904,-0.037 -5.861,-0.051 0.631,0.662 1.254,1.318 1.895,1.959 1.782,1.77 3.915,3.342 5.481,5.328 0.405,0.5 -0.116,1.219 -0.667,0.895 -2.043,-1.213 -3.793,-3.225 -5.48,-4.941 -1.038,-1.053 -2.045,-2.137 -3.023,-3.25 -1.449,-0.006 -2.889,-0.02 -4.339,-0.025 2.12,1.715 4.238,3.596 5.688,5.795 0.278,0.43 -0.286,0.969 -0.665,0.693 -1.47,-1.061 -2.701,-2.531 -4.023,-3.807 -0.943,-0.918 -1.898,-1.814 -2.871,-2.701 -1.467,-0.004 -2.936,-0.023 -4.404,-0.027 2.401,2.125 4.83,4.281 6.899,6.738 0.329,0.389 -0.134,1.074 -0.552,0.748 -2.83,-2.182 -5.357,-4.891 -7.863,-7.494 -1.584,-0.016 -3.166,-0.021 -4.75,-0.027 2.586,2.436 5.414,4.834 7.553,7.713 0.31,0.418 -0.115,1.115 -0.578,0.773 -3.148,-2.311 -5.836,-5.576 -8.59,-8.414 -0.027,-0.031 -0.037,-0.064 -0.056,-0.094 -0.931,0.004 -1.87,-0.014 -2.802,-0.018 -0.162,0.008 -0.336,0.006 -0.508,0.004 0.811,0.791 1.633,1.568 2.474,2.33 1.624,1.479 3.491,2.826 4.91,4.539 0.329,0.398 -0.101,0.949 -0.53,0.713 -1.824,-1.002 -3.429,-2.66 -4.966,-4.105 -1.2,-1.115 -2.37,-2.283 -3.511,-3.486 -1.65,0.004 -3.292,-0.006 -4.941,-0.014 2.48,1.961 4.969,4.023 7.049,6.338 0.34,0.365 -0.111,0.98 -0.521,0.705 -2.893,-1.955 -5.612,-4.529 -8.198,-7.041 -1.737,-0.008 -3.474,-0.02 -5.211,-0.018 2.554,2.217 5.253,4.223 7.667,6.584 0.388,0.369 -0.121,0.943 -0.529,0.717 -3.155,-1.766 -6.023,-4.6 -8.625,-7.305 -1.738,0.002 -3.484,-0.012 -5.221,-0.021 0.898,0.785 1.795,1.557 2.715,2.295 1.646,1.322 3.449,2.453 4.998,3.908 0.352,0.338 -0.111,0.809 -0.463,0.635 -3.053,-1.545 -6.011,-4.174 -8.613,-6.84 -2.082,-0.004 -4.176,-0.012 -6.268,-0.014 2.403,2.051 4.954,3.824 7.502,5.729 0.512,0.385 0.047,1.16 -0.496,0.885 -3.13,-1.58 -5.967,-4.041 -8.523,-6.621 -1.266,0 -2.531,-0.012 -3.799,-0.018 2.105,1.498 4.206,3.152 5.822,5.158 0.227,0.271 -0.081,0.756 -0.383,0.521 -2.36,-1.762 -4.492,-3.84 -6.813,-5.678 -1.631,0.002 -3.253,-0.004 -4.885,-0.018 1.051,0.902 2.07,1.84 3.139,2.707 1.309,1.059 2.75,1.953 3.988,3.113 0.357,0.35 -0.121,0.846 -0.492,0.666 -1.542,-0.773 -2.912,-2.039 -4.235,-3.18 -1.173,-1.014 -2.354,-2.096 -3.368,-3.311 -1.861,-0.002 -3.724,-0.004 -5.596,-0.008 2.143,2.092 4.346,3.973 6.76,5.828 0.483,0.379 0.049,1.146 -0.484,0.859 -2.871,-1.572 -5.623,-4.002 -7.811,-6.691 -1.402,-0.004 -2.813,-0.008 -4.213,0 0.67,0.613 1.351,1.215 2.012,1.824 1.379,1.279 3.018,2.486 4.084,4.068 0.365,0.545 -0.345,1.113 -0.811,0.846 -1.596,-0.938 -2.911,-2.568 -4.261,-3.875 -0.972,-0.945 -1.943,-1.902 -2.905,-2.865 -1.383,-0.004 -2.766,-0.01 -4.147,-0.012 1.978,1.703 4.001,3.469 5.626,5.463 0.366,0.451 -0.137,1.221 -0.631,0.852 -2.369,-1.754 -4.525,-4.109 -6.598,-6.309 -1.459,0.002 -2.908,0.008 -4.367,0.018 0.82,0.818 1.651,1.621 2.471,2.451 1.416,1.426 2.986,2.787 4.127,4.484 0.262,0.398 -0.266,0.887 -0.607,0.645 -1.621,-1.17 -2.935,-2.838 -4.311,-4.301 -0.998,-1.084 -1.986,-2.18 -2.977,-3.273 -1.314,0.01 -2.619,0.004 -3.935,0.025 0.388,0.359 0.774,0.729 1.173,1.076 1.332,1.184 2.85,2.148 4.113,3.416 0.425,0.422 -0.143,1.057 -0.607,0.811 -2.207,-1.201 -4.245,-3.225 -6.033,-5.295 -1.602,0.016 -3.205,0.027 -4.817,0.049 0.481,0.475 0.953,0.959 1.434,1.436 1.216,1.211 2.666,2.332 3.628,3.799 0.205,0.338 -0.203,0.658 -0.479,0.498 -1.463,-0.842 -2.656,-2.355 -3.823,-3.607 -0.642,-0.695 -1.272,-1.396 -1.903,-2.117 -1.583,0.018 -3.166,0.033 -4.761,0.045 2.325,2.008 4.651,4.035 6.764,6.256 0.366,0.393 -0.145,1.098 -0.561,0.758 -2.698,-2.129 -5.209,-4.574 -7.71,-6.998 -1.583,0.016 -3.178,0.025 -4.761,0.041 1.936,1.846 3.968,3.506 6.03,5.264 0.417,0.359 0.05,1.064 -0.436,0.777 -2.508,-1.496 -4.772,-3.697 -6.747,-6.027 -1.294,0.004 -2.602,0.014 -3.897,0.021 1.711,1.523 3.422,3.086 4.908,4.811 0.339,0.398 -0.145,1.105 -0.572,0.764 -2.044,-1.648 -3.907,-3.631 -5.766,-5.578 -1.401,0.008 -2.793,0.014 -4.193,0.01 1.779,1.439 3.457,3.029 4.829,4.773 0.347,0.449 -0.19,0.98 -0.587,0.623 -1.975,-1.766 -3.861,-3.631 -5.809,-5.412 -1.467,-0.006 -2.943,-0.023 -4.412,-0.049 1.796,1.537 3.494,3.232 4.844,5.098 0.308,0.439 -0.189,0.959 -0.577,0.602 -1.992,-1.859 -3.849,-3.838 -5.802,-5.727 -1.88,-0.031 -3.752,-0.074 -5.631,-0.129 2.167,1.645 4.268,3.41 6.143,5.389 0.367,0.4 -0.188,0.93 -0.566,0.59 -2.277,-2.006 -4.488,-4.063 -6.797,-6.02 -1.207,-0.041 -2.425,-0.076 -3.635,-0.125 1.957,1.773 3.93,3.537 5.713,5.465 0.374,0.402 -0.126,1.023 -0.572,0.753 z"
     id="path31"
     inkscape:connector-curvature="0"
     style="fill:#efedc3;stroke:#efedc3;stroke-miterlimit:10" /></g><text
   stroke-miterlimit="10"
   font-size="38"
   letter-spacing="0.73"
   id="text33"
   style="font-weight:bold;font-stretch:normal;font-size:36px;font-family:iCielBrandonText-Bold;letter-spacing:0.73000002;fill:#f9f8e7;stroke-miterlimit:10"
   x="93.829193"
   y="275.08099">mimi house</text>

<g
   id="g35"
   transform="translate(-0.88431382,-204.3612)"><g
     id="g37"><path
       id="XMLID_7_"
       stroke-miterlimit="10"
       d="m 313.25,361.646 c 1.638,-13.666 2.411,-24.052 -0.681,-37.157 -2.124,-9.011 -7.356,-17.009 -13.193,-24.323 -0.289,-6.256 -2.763,-27.176 -7.253,-29.966 -2.418,-1.509 -6.777,1.993 -6.811,2.019 -2.874,2.315 -5.554,4.93 -8.156,7.629 -7.47,-5.069 -15.498,-9.182 -23.563,-12.188 -17.963,-6.688 -39.488,-7.421 -58.777,-2.156 -0.955,0.236 -1.906,0.484 -2.846,0.75 -8.7,2.445 -17.098,6.127 -24.922,10.813 -0.127,-0.088 -0.26,-0.171 -0.382,-0.251 -4.681,-3.126 -9.972,-6.017 -15.446,-7.432 -1.684,-0.437 -3.831,0.366 -4.25,2.229 -0.209,0.919 -1.336,4.048 -1.545,4.962 -3.713,8.979 -4.465,10.376 -6.963,19.763 -0.16,0.595 -1.553,6.925 -1.408,7.444 -16.334,21.43 -23.699,48.854 -14.439,76.263 7.328,21.696 24.301,37.103 46.303,43.333 6.422,1.811 80.387,22.742 122.803,-20.748 9.615,-9.856 19.895,-27.341 21.529,-40.984 z"
       style="fill:#eee8b6;fill-opacity:1;stroke:#b9b337;stroke-width:3;stroke-miterlimit:10;stroke-opacity:1"
       inkscape:connector-curvature="0" /><g
       id="g40"><path
         d="m 226.598,376.487 c 0.497,-1.235 0,-3.022 -1.402,-3.472 -1.85,-0.598 -8.837,-0.484 -8.619,-0.502 -0.48,0.012 -6.482,-0.504 -4.91,3.299 0.553,1.326 4.372,6.027 5.223,6.965 0.541,0.592 1.266,0.848 1.992,0.867 1.669,0.731 6.87,-5.046 7.716,-7.157 z"
         id="path42"
         style="fill:#ff91ff;fill-opacity:1"
         inkscape:connector-curvature="0" /><path
         d="M 216.654,372.482"
         id="path44"
         style="fill:#ff91ff;fill-opacity:1"
         inkscape:connector-curvature="0" /></g><g
       id="g46">
			<path
   d="m 297.104,350.4 c -12.736,3.295 -25.638,8.494 -35.734,17.052 -0.447,0.378 0.173,1.01 0.622,0.657 10.49,-8.231 23.046,-11.936 35.457,-16.25 0.889,-0.307 0.609,-1.707 -0.345,-1.459 z"
   id="path48"
   inkscape:connector-curvature="0"
   style="fill:#156666" />
			<path
   d="m 296.561,367.577 c -10.303,0.171 -20.451,2.633 -30.088,6.15 -0.555,0.2 -0.389,1.081 0.221,0.924 9.873,-2.529 19.597,-4.741 29.805,-5.45 1.022,-0.064 1.13,-1.639 0.062,-1.624 z"
   id="path50"
   inkscape:connector-curvature="0"
   style="fill:#156666" />
			<path
   d="m 289.496,388.758 c -7.141,-4.099 -15.101,-7.396 -23.263,-8.646 -0.385,-0.058 -0.453,0.531 -0.111,0.646 7.786,2.644 15.139,5.802 22.573,9.285 0.864,0.402 1.671,-0.782 0.801,-1.285 z"
   id="path52"
   inkscape:connector-curvature="0"
   style="fill:#156666" />
		</g><g
       id="g54">
			<path
   d="m 175.115,371.037 c -13.485,-2.578 -29.182,-0.246 -42.361,2.957 -0.824,0.199 -0.523,1.397 0.3,1.267 7.199,-1.124 14.41,-2.062 21.685,-2.585 6.728,-0.488 13.461,-0.08 20.18,-0.461 0.627,-0.034 0.921,-1.041 0.196,-1.178 z"
   id="path56"
   inkscape:connector-curvature="0"
   style="fill:#156666" />
			<path
   d="m 176.879,378.508 c -8.154,0.896 -16.363,1.47 -24.314,3.568 -1.041,0.276 -0.678,1.842 0.386,1.633 8.017,-1.604 16.106,-2.766 24.13,-4.318 0.587,-0.116 0.357,-0.942 -0.202,-0.883 z"
   id="path58"
   inkscape:connector-curvature="0"
   style="fill:#156666" />
			<path
   d="m 180.664,384.746 c -7.971,4.492 -13.938,11.221 -19.761,18.137 -0.525,0.627 0.299,1.565 0.899,0.949 6.267,-6.421 12.102,-13.051 19.369,-18.389 0.403,-0.293 -0.087,-0.937 -0.507,-0.697 z"
   id="path60"
   inkscape:connector-curvature="0"
   style="fill:#156666" />
		</g><path
       d="m 203.969,376.281 c -1.152,-3.068 -3.677,-5.684 -6.999,-6.363 -2.876,-0.586 -5.755,0.042 -7.893,2.146 -1.651,1.622 -2.423,4.005 -2.1,6.281 -0.058,1.726 0.323,3.47 1.2,4.954 2.561,4.334 7.986,4.775 11.975,2.17 3.033,-1.976 5.192,-5.487 3.817,-9.188 z"
       id="path62"
       inkscape:connector-curvature="0"
       style="opacity:0.4;fill:#ff91ff;fill-opacity:1" /><path
       d="m 253.238,371.479 c -2.33,-2.902 -6.433,-4.725 -10.15,-4.019 -2.621,0.498 -4.637,2.105 -5.71,4.249 -1.505,1.978 -1.739,4.817 -0.792,7.288 2.434,6.33 11.671,7.771 16.485,3.621 3.367,-2.906 2.713,-7.966 0.167,-11.139 z"
       id="path64"
       inkscape:connector-curvature="0"
       style="opacity:0.4;fill:#ff91ff;fill-opacity:1" /><path
       d="m 233.951,394.43 c -0.396,-0.281 -1.109,-0.078 -1.303,0.355 -0.438,1.014 -0.275,1.785 -1.262,2.504 -1.352,0.989 -3.199,1.334 -4.835,1.475 -3.487,0.303 -6.704,-0.826 -7.686,-4.221 0.004,-0.281 -0.011,-0.566 -0.079,-0.854 -0.063,-0.264 -0.314,-0.367 -0.54,-0.327 -0.436,-0.157 -1.017,0.013 -1.104,0.525 -0.113,0.728 -0.111,1.396 -0.02,2.006 -2.266,2.881 -9.137,4.227 -11.153,1.7 -0.704,-0.875 -1.979,0.105 -1.759,1.038 1.119,4.632 10.048,2.602 13.396,-1.239 1.531,3.035 5.976,4.082 9.482,3.82 2.332,-0.176 4.687,-0.885 6.489,-2.405 1.3,-1.101 1.919,-3.256 0.374,-4.377 z"
       id="path66"
       inkscape:connector-curvature="0"
       style="fill:#156666" /><path
       d="m 286.542,280.059 c 0,0 -8.357,2.566 -4.521,5.486 3.834,2.924 4.756,6.801 7.061,5.295 2.306,-1.508 -1.16,-9.647 -2.54,-10.781 z"
       id="path68"
       inkscape:connector-curvature="0"
       style="fill:#156468" /><path
       d="m 154.729,278.381 c 0,0 8.367,2.607 4.537,5.507 -3.829,2.903 -4.733,6.78 -7.047,5.26 -2.311,-1.519 1.135,-9.638 2.51,-10.767 z"
       id="path70"
       inkscape:connector-curvature="0"
       style="fill:#156468" /></g><path
     stroke-miterlimit="10"
     d="m 204.32,351.471 c -1.51,-3.859 -4.348,-6.963 -8.86,-6.869 -3.95,0.08 -7.587,3.996 -9.229,7.081 -0.606,1.136 0.983,1.95 1.896,1.356 2.121,-1.391 4.049,-3.085 6.497,-3.924 2.992,-1.027 4.372,2.01 5.345,4.129 1.234,2.69 5.422,0.962 4.351,-1.773 z"
     id="path72"
     inkscape:connector-curvature="0"
     style="fill:#156468;stroke:#196468;stroke-miterlimit:10" /><path
     d="m 235.367,350.477 c 1.261,-3.949 3.895,-7.227 8.401,-7.424 3.948,-0.17 7.829,3.504 9.666,6.479 0.679,1.094 -0.856,2.008 -1.808,1.474 -2.205,-1.251 -4.237,-2.818 -6.733,-3.499 -3.052,-0.834 -4.235,2.285 -5.069,4.463 -1.06,2.762 -5.349,1.304 -4.457,-1.493 z"
     id="path74"
     inkscape:connector-curvature="0"
     style="fill:#156468" /></g><g
   id="g76"
   transform="translate(2.764001,-204.3612)"><path
     stroke-miterlimit="10"
     d="m 159.822,437.486 c -5.535,4.807 -9.166,3.693 -13.768,-0.768 -0.896,0.502 -1.867,0.99 -2.783,1.57 -5.443,3.434 -11.85,0.125 -12.32,-6.258 -0.507,-6.9 4.448,-15.886 12.278,-18.25 8.388,-2.527 16.563,-3.462 25.115,-1.121 9.308,2.544 13.798,11.725 9.617,20.401 -1.143,2.377 -2.28,4.672 -4.724,6.297 -5.112,3.408 -9.153,3.092 -13.415,-1.871 z"
     id="path78"
     style="clip-rule:evenodd;fill:#e1dc87;fill-opacity:1;fill-rule:evenodd;stroke:#b9b337;stroke-width:2;stroke-miterlimit:10;stroke-opacity:1"
     inkscape:connector-curvature="0" /><path
     stroke-miterlimit="10"
     d="m 255.117,437.396 c -2.477,-1.576 -3.662,-3.848 -4.855,-6.197 -4.363,-8.584 -0.065,-17.858 9.187,-20.599 8.501,-2.52 16.695,-1.759 25.133,0.594 7.879,2.198 13.021,11.078 12.66,17.986 -0.337,6.393 -6.672,9.836 -12.186,6.518 -0.931,-0.561 -1.909,-1.027 -2.817,-1.512 -4.506,4.557 -8.112,5.744 -13.748,1.057 -4.157,5.051 -8.189,5.45 -13.374,2.153 z"
     id="path80"
     style="clip-rule:evenodd;fill:#e1dc87;fill-opacity:1;fill-rule:evenodd;stroke:#b9b337;stroke-width:2;stroke-miterlimit:10;stroke-opacity:1"
     inkscape:connector-curvature="0" /></g><rect
   x="44.662003"
   y="320.0448"
   width="325.19"
   height="20.462999"
   id="rect86"
   style="fill:none" /><text
   stroke-miterlimit="10"
   font-size="24.6349"
   letter-spacing="4.1"
   id="text88"
   style="font-size:20px;font-family:iCielBrandonText-Bold;letter-spacing:4.0498786;fill:#fafafa;stroke-miterlimit:10"
   x="101.21038"
   y="337.15005"> Snacks &amp; Drinks</text>

<line
   stroke-miterlimit="10"
   x1="164.63425"
   y1="350.69879"
   x2="266.84525"
   y2="350.69879"
   id="line90"
   style="fill:none;stroke:#efedc3;stroke-width:0.5;stroke-miterlimit:10" /><text
   letter-spacing="4.1"
   id="text1312"
   x="622.13531"
   y="237.10403"
   style="font-size:90.87532806px;font-family:iCielBrandonText-Bold;letter-spacing:4.0498786;fill:#f9f8e7;fill-opacity:1">hè-Thái</text>

<text
   transform="scale(0.98777529,1.012376)"
   letter-spacing="3.075"
   id="text1314"
   style="font-size:59.26651764px;font-family:iCielBrandonText-Bold;letter-spacing:3.03740907;fill:#f9f8e7;fill-opacity:1"
   x="569.45538"
   y="88.449455">Nộm-bò-khô</text>

<text
   letter-spacing="1.025"
   id="text1316"
   x="649.53656"
   y="137.90324"
   style="font-weight:bold;font-size:32px;font-family:iCielBrandonText-Bold;letter-spacing:1.01246965;fill:#f9f8e7;fill-opacity:1">Caramel-thập-cẩm</text>

<text
   transform="matrix(0.00862833,-0.98777529,1.012376,0,0,0)"
   letter-spacing="3.075"
   id="text1320"
   x="-304.48605"
   y="493.29294"
   style="font-size:64px;font-family:iCielBrandonText-Bold;letter-spacing:3.03740907;fill:#f9f8e7;fill-opacity:1">Trà-sữa</text>

<text
   transform="scale(0.98777529,1.012376)"
   font-size="42"
   letter-spacing="2.05"
   id="text1328"
   x="536.28168"
   y="293.11798"
   style="font-weight:bold;font-size:38px;font-family:iCielBrandonText-Bold;letter-spacing:2.0249393;fill:#f9f8e7;fill-opacity:1">Nước-mía-thạch-trân-châu</text>

<text
   transform="scale(0.98777529,1.012376)"
   letter-spacing="2.05"
   id="text1324"
   x="1051.7019"
   y="109.529"
   style="font-size:46.92950058px;font-family:iCielBrandonText-Bold;letter-spacing:2.0249393;fill:#f9f8e7;fill-opacity:1">NEM</text>

<text
   transform="scale(0.98777529,1.012376)"
   letter-spacing="2.05"
   id="text1324-0"
   x="1034.9355"
   y="160.56898"
   style="font-size:46.92950058px;font-family:iCielBrandonText-Bold;letter-spacing:2.0249393;fill:#f9f8e7;fill-opacity:1">CHUA</text>

<text
   transform="scale(0.98777529,1.012376)"
   letter-spacing="2.05"
   id="text1324-3"
   x="1055.4142"
   y="216.30647"
   style="font-size:46.92950058px;font-family:iCielBrandonText-Bold;letter-spacing:2.0249393;fill:#f9f8e7;fill-opacity:1">RÁN</text>

<g
   style="font-size:90.87532806px;font-family:iCielBrandonText-Bold;letter-spacing:4.0498786;fill:#f9f8e7;fill-opacity:1"
   id="text1312-1"
   transform="matrix(1.2636326,0,0,1.4508135,-164.92132,-105.4698)"><path
     d="m 617.98617,175.95842 0,9.45139 q -4.52601,-4.21541 -9.67325,-6.30092 -5.10286,-2.08552 -10.87131,-2.08552 -11.35942,0 -17.39411,6.96652 -6.03469,6.92214 -6.03469,20.05646 0,13.08996 6.03469,20.05647 6.03469,6.92215 17.39411,6.92215 5.76845,0 10.87131,-2.08552 5.14724,-2.08552 9.67325,-6.30093 l 0,9.36265 q -4.7035,3.19483 -9.98386,4.79225 -5.23598,1.59742 -11.09318,1.59742 -15.04235,0 -23.69503,-9.18515 -8.65268,-9.22953 -8.65268,-25.15934 0,-15.97417 8.65268,-25.15933 8.65268,-9.22952 23.69503,-9.22952 5.94595,0 11.18193,1.59742 5.28035,1.55304 9.89511,4.7035 z"
     style="font-size:90.87532806px;font-family:iCielBrandonText-Bold;letter-spacing:4.0498786;fill:#f9f8e7;fill-opacity:1"
     id="path5523"
     inkscape:connector-curvature="0" /></g></svg>