<?xml version="1.0" encoding="UTF-8" standalone="no"?>
<!-- Created with Inkscape (http://www.inkscape.org/) -->
<svg id="svg2993" xmlns:rdf="http://www.w3.org/1999/02/22-rdf-syntax-ns#" xmlns="http://www.w3.org/2000/svg" height="90" width="90" version="1.1" xmlns:cc="http://creativecommons.org/ns#" xmlns:xlink="http://www.w3.org/1999/xlink" xmlns:dc="http://purl.org/dc/elements/1.1/">
 <defs id="defs2995">
  <linearGradient id="linearGradient5296" y2="316.65" gradientUnits="userSpaceOnUse" x2="568.57" y1="316.65" x1="200">
   <stop id="stop5286" stop-color="#a02c2c" offset="0"/>
   <stop id="stop5292" stop-color="#cc7373" offset="0.77778"/>
   <stop id="stop5288" stop-color="#dec8c8" offset="1"/>
  </linearGradient>
  <radialGradient id="radialGradient3807" gradientUnits="userSpaceOnUse" cx="385.62" cy="318.12" r="144.43" gradientTransform="matrix(0.20828597,0,0,0.20825891,-23.514197,929.34286)">
   <stop id="stop3755-4" stop-color="#FFF" offset="0"/>
   <stop id="stop3761-0" stop-color="#fafafa" offset="0.5"/>
   <stop id="stop3763-9" stop-color="#DDD" offset="0.8"/>
   <stop id="stop3757-4" stop-color="#BBB" offset="1"/>
  </radialGradient>
 </defs>
 <metadata id="metadata2998">
  <rdf:RDF>
   <cc:Work rdf:about="">
    <dc:format>image/svg+xml</dc:format>
    <dc:type rdf:resource="http://purl.org/dc/dcmitype/StillImage"/>
    <dc:title/>
   </cc:Work>
  </rdf:RDF>
 </metadata>
 <g id="layer2" transform="translate(-12.0002,-950.36557)">
  <path id="path3840" stroke-linejoin="round" d="m562.86,316.65c0,98.622-79.949,178.57-178.57,178.57-98.622,0-178.57-79.949-178.57-178.57,0-98.622,79.949-178.57,178.57-178.57,98.622,0,178.57,79.949,178.57,178.57z" fill-rule="nonzero" transform="matrix(0.24418577,0,0,0.24418577,-36.8369,918.04466)" stroke="#000" stroke-linecap="round" stroke-miterlimit="4" stroke-dasharray="none" stroke-width="11.4289999" fill="url(#linearGradient5296)"/>
  <path id="path3015" stroke-linejoin="round" d="m54.295,1024.4c-12.261-1.4929-21.972-9.6819-25.32-21.352-4.3876-15.292,5.2247-31.331,21.275-35.497,9.2209-2.3939,19.335,0.52874,26.707,7.7174,9.5696,9.3312,11.486,23.529,4.7269,35.024-1.932,3.2859-6.1293,7.5443-9.5958,9.7355-4.8076,3.0388-12.739,4.9877-17.794,4.3722zm9.8192-20.713c0-0.1919-1.6115-2.127-3.5812-4.3004l-3.5811-3.9514,6.4079-0.32761,6.4079-0.32762-6.8288-0.11725-6.8288-0.11725,4.2996-4.3143c5.6631-5.6825,5.5399-6.5012-0.16547-1.0995-2.4558,2.3251-4.7169,4.2274-5.0246,4.2274-0.30776,0-0.91953-0.51224-1.3595-1.1383-1.5196-2.1625-6.5303-7.2424-6.8396-6.9341-0.17065,0.17009,1.4565,2.2562,3.6158,4.6357l3.9261,4.3265-5.7872,0.32999-5.7872,0.32999,5.3356,0.11487,5.3356,0.11488-3.2324,3.2623c-4.169,4.2076-3.3258,4.2146,1.3345,0.0111l3.6045-3.2512,3.6303,3.9301c1.9967,2.1615,3.7196,4.1584,3.8287,4.4375,0.22253,0.5693,1.2894,0.7005,1.2894,0.1586z" fill-rule="nonzero" stroke="#000" stroke-linecap="round" stroke-miterlimit="4" stroke-dasharray="none" stroke-width="2.37659168" fill="url(#radialGradient3807)"/>
  <flowRoot id="flowRoot2996" style="letter-spacing:0px;word-spacing:0px;" font-weight="normal" xml:space="preserve" transform="matrix(0.24064171,0,0,0.24064171,-36.208149,911.67013)" font-style="normal" font-stretch="normal" line-height="125%" font-size="72px" font-variant="normal" font-family="Shonar Bangla" fill="#000000"><flowRegion id="flowRegion2998"><rect id="rect3000" height="93.75" width="331.25" y="569.03" x="200"/></flowRegion><flowPara id="flowPara3002"/></flowRoot>
 </g>
</svg>
