<svg xmlns="http://www.w3.org/2000/svg" viewBox="0 0 75 93.75"><path d="M62.078 44.168C54 26.672 59.21 21.063 59.266 21.008c.086-.094.1-.238.03-.348-.077-.105-.214-.152-.335-.1-.116.045-11.355 4.73-9.94 15.112-3.086-2.774-17.485-16.992-8.676-33.71.054-.103.04-.235-.04-.317-.08-.09-.21-.114-.312-.067-.187.078-4.68 1.996-8.262 6.852-3.304 4.468-6.378 12.37-2.238 24.605 1.504 5.754-1.336 10.418-2.855 12.4.37-1.365.843-3.677.765-6.333-.12-3.89-1.523-9.258-7.51-12.727-.095-.055-.216-.05-.302.016-.09.07-.13.18-.106.29.024.1 2.262 10.324-1.668 15.054-3.39 4.078-6.714 11.18-4.918 17.758 1.508 5.5 6.22 9.7 14.004 12.477 1.996.612 3.903 1.077 6.016 1.47.137.033.27-.053.312-.186.043-.137-.027-.285-.152-.344-3.996-1.73-8.117-5.34-5.055-12.672 2.918-6.32 2.395-9.582 1.813-10.972 1.508.85 4.504 3.054 3.754 6.93-.02.113.03.23.133.288.1.06.222.05.316-.023.093-.07 9.097-7.483 5.007-16.562 2.016 1.164 7.363 5.235 4.21 14.575-1.05 4.01 1.806 6.902 1.93 7.02.094.093.24.11.348.034.106-.066.153-.207.106-.332-.093-.25-2.23-5.996 2.4-9.168-.243 1.473-.63 5.12 1.026 7.114 1.49 1.79 2.926 4.727 2.485 7.598-.308 2.02-1.5 3.723-3.558 5.05-.117.083-.16.228-.1.353.06.13.206.188.342.145 5.078-1.68 11.743-5.015 14.65-11.387 2.14-4.695 1.87-10.324-.806-16.73zm0 0" fill="#E25822"/></svg>