<?xml version="1.0" encoding="UTF-8" standalone="no"?>
<svg
   xmlns:dc="http://purl.org/dc/elements/1.1/"
   xmlns:cc="http://creativecommons.org/ns#"
   xmlns:rdf="http://www.w3.org/1999/02/22-rdf-syntax-ns#"
   xmlns:svg="http://www.w3.org/2000/svg"
   xmlns="http://www.w3.org/2000/svg"
   xmlns:xlink="http://www.w3.org/1999/xlink"
   xmlns:sodipodi="http://sodipodi.sourceforge.net/DTD/sodipodi-0.dtd"
   xmlns:inkscape="http://www.inkscape.org/namespaces/inkscape"
   width="24"
   height="24"
   id="svg2"
   version="1.1"
   inkscape:version="0.48.4 r9939"
   sodipodi:docname="mangcut.svg">
  <sodipodi:namedview
     pagecolor="#ffffff"
     bordercolor="#666666"
     borderopacity="1"
     objecttolerance="10"
     gridtolerance="10"
     guidetolerance="10"
     inkscape:pageopacity="0"
     inkscape:pageshadow="2"
     inkscape:window-width="1280"
     inkscape:window-height="738"
     id="namedview32"
     showgrid="false"
     inkscape:zoom="4.9166667"
     inkscape:cx="23"
     inkscape:cy="24"
     inkscape:window-x="-8"
     inkscape:window-y="-8"
     inkscape:window-maximized="1"
     inkscape:current-layer="svg2" />
  <defs
     id="defs4">
    <linearGradient
       id="linearGradient4415">
      <stop
         offset="0"
         id="stop4417"
         stop-color="#ffffff" />
      <stop
         offset="1"
         id="stop4419"
         stop-color="#ded3d5" />
    </linearGradient>
    <linearGradient
       id="linearGradient4409">
      <stop
         id="stop4411"
         offset="0"
         stop-color="#e15f5f" />
      <stop
         id="stop4413"
         offset="1"
         stop-color="#823632" />
    </linearGradient>
    <radialGradient
       xlink:href="#linearGradient4409"
       id="radialGradient4462"
       gradientUnits="userSpaceOnUse"
       gradientTransform="matrix(1.0255035,-0.02550347,0.02306095,0.92728918,-21.032373,49.749922)"
       cx="294.64148"
       cy="586.18536"
       fx="294.64148"
       fy="586.18536"
       r="83.177727" />
    <radialGradient
       xlink:href="#linearGradient4415"
       id="radialGradient4464"
       gradientUnits="userSpaceOnUse"
       gradientTransform="matrix(0.94503453,-0.32697054,0.44196492,1.2773998,-237.08317,-66.281536)"
       cx="273.30185"
       cy="575.56262"
       fx="273.30185"
       fy="575.56262"
       r="31.99832" />
    <radialGradient
       xlink:href="#linearGradient4415"
       id="radialGradient4466"
       gradientUnits="userSpaceOnUse"
       gradientTransform="matrix(1.0491401,-0.29484038,0.36469362,1.2977011,-220.46728,-74.517811)"
       cx="308.2821"
       cy="562.9884"
       fx="308.2821"
       fy="562.9884"
       r="28.77924" />
    <radialGradient
       xlink:href="#linearGradient4415"
       id="radialGradient4468"
       gradientUnits="userSpaceOnUse"
       gradientTransform="matrix(0.91626617,0.40056998,-0.52666097,1.2046874,337.00985,-254.11299)"
       cx="327.56168"
       cy="587.82001"
       fx="327.56168"
       fy="587.82001"
       r="29.537689" />
    <radialGradient
       xlink:href="#linearGradient4415"
       id="radialGradient4470"
       gradientUnits="userSpaceOnUse"
       gradientTransform="matrix(0.31339476,0.8286615,-0.85394691,0.32295754,735.57363,139.6138)"
       cx="323.31052"
       cy="601.42725"
       fx="323.31052"
       fy="601.42725"
       r="29.865919" />
    <radialGradient
       xlink:href="#linearGradient4415"
       id="radialGradient4472"
       gradientUnits="userSpaceOnUse"
       gradientTransform="matrix(-0.73113962,0.86556981,-1.0127268,-0.85544191,1158.6011,869.49098)"
       cx="310.11206"
       cy="613.94031"
       fx="310.11206"
       fy="613.94031"
       r="20.423161" />
    <radialGradient
       xlink:href="#linearGradient4415"
       id="radialGradient4474"
       gradientUnits="userSpaceOnUse"
       gradientTransform="matrix(-0.9263463,-0.37667298,0.38808559,-0.95441317,290.69395,1296.0407)"
       cx="273.84943"
       cy="610.26447"
       fx="273.84943"
       fy="610.26447"
       r="32.796692" />
  </defs>
  <metadata
     id="metadata7">image/svg+xml<rdf:RDF>
  <cc:Work
     rdf:about="">
    <dc:format>image/svg+xml</dc:format>
    <dc:type
       rdf:resource="http://purl.org/dc/dcmitype/StillImage" />
  </cc:Work>
</rdf:RDF>
</metadata>
  <g
     id="g20"
     transform="matrix(0.5342508,0,0,-0.53132056,-0.56404923,24.809145)"
     style="fill:#ffffff">
    <title
       id="title22">Layer 1</title>
    <g
       id="g4453"
       style="fill:#ffffff">
      <path
         id="path3555"
         d="M 2.001001,19.184404 C 1,22.848415 1.625626,33.433395 4.503488,36.826007 7.381366,40.218589 14.763716,48.360889 26.024927,45.646773 37.286156,42.932696 44.668514,36.961726 45.419258,25.562522 46.170013,14.163333 40.038914,3.714074 30.404308,2.35703 20.769703,0.999999 11.135091,3.985483 8.132117,7.513807 5.129116,11.042126 2.501506,13.756224 2.001001,19.184401 l 0,2e-6 z"
         style="fill:#ffffff;stroke:#000000;stroke-width:1px"
         inkscape:connector-curvature="0" />
      <path
         id="path3553"
         d="m 8.382352,22.848415 c 0,0 -2.377371,-5.021036 2.752743,-10.856329 5.13012,-5.8353 8.508489,-4.749683 10.009959,-2.84983 2.127142,4.342544 4.004007,18.048707 3.25326,18.998652 -0.75075,0.949942 -12.011971,2.171274 -16.015964,-5.292494 l 2e-6,0 z"
         style="fill:#ffffff;stroke:#000000;stroke-width:1px"
         inkscape:connector-curvature="0" />
      <path
         id="path3543"
         d="m 24.022951,26.919546 c 0,0 -3.503506,-15.741723 -3.253246,-18.048704 2.377361,-2.306963 5.505474,-4.206836 9.759735,-1.22134 4.254213,2.985505 4.254213,3.935449 4.754736,5.021079 0.500481,1.085646 1.251251,4.342547 -1.376385,7.192348 -2.627609,2.849775 -7.006992,7.599457 -7.882864,8.006565 -0.875864,0.407099 -1.626614,0.67849 -2.001976,-0.949947 z"
         style="fill:#ffffff;stroke:#000000;stroke-width:1px"
         inkscape:connector-curvature="0" />
      <path
         id="path3545"
         d="m 35.546097,14.398195 c 0,0 2.240551,-1.049084 3.867172,2.343517 1.626644,3.392637 2.252262,8.685095 -3.503471,10.042137 -5.755732,1.357059 -9.759743,1.899866 -10.635599,1.357059 -0.875883,-0.542828 2.013653,-3.436043 4.140774,-5.200199 2.127125,-1.764166 6.131124,-8.542515 6.131124,-8.542515 z"
         style="fill:#ffffff;stroke:#000000;stroke-width:1px"
         inkscape:connector-curvature="0" />
      <path
         id="path3547"
         d="m 25.023943,28.005186 c 0,0 2.627617,6.242426 4.254246,8.956518 1.626637,2.714088 3.128103,2.306995 6.631613,0.135704 3.503471,-2.171299 6.005985,-9.770723 4.00399,-12.891933 -2.001995,-3.12122 -9.509481,4.342545 -14.889847,3.799711 l -2e-6,0 z"
         style="fill:#ffffff;stroke:#000000;stroke-width:1px"
         inkscape:connector-curvature="0" />
      <path
         id="path3549"
         d="m 19.893837,39.811489 c 0,0 3.253229,-8.41367 4.129118,-11.399197 0.875864,-2.985485 2.001974,-0.271379 2.752726,0.949944 0.750757,1.221336 4.254248,7.192352 3.62863,9.363621 -0.625633,2.171276 -5.255232,6.37809 -10.510473,1.085632 z"
         style="fill:#ffffff;stroke:#000000;stroke-width:1px"
         inkscape:connector-curvature="0" />
      <path
         id="path3551"
         d="m 23.522448,27.598082 c 0,0 -10.385345,2.243057 -15.39033,-6.378099 -2.752748,9.906422 1.876866,22.255524 12.011962,18.455814 2.127115,-1.76416 6.256224,-11.127777 3.378368,-12.077715 z"
         style="fill:#ffffff;stroke:#000000;stroke-width:1px"
         inkscape:connector-curvature="0" />
    </g>
  </g>
  <path
     style="fill:#ffffff"
     d="M 3.8255703,12.210482 C 3.6528168,11.204094 3.7453914,8.8493391 3.994523,7.9129404 4.7992481,4.8882607 6.7618985,3.3170929 9.132701,3.7996531 c 0.6824434,0.1389072 0.8483091,0.2192153 1.144502,0.5541388 1.084234,1.2260169 2.255037,4.6695217 1.798001,5.2881918 -0.04651,0.06296 -0.737476,0.1103775 -1.655419,0.1136061 C 9.2810791,9.759566 8.6483546,9.813242 8.1379004,9.9490559 6.6035535,10.357302 5.1824384,11.215868 4.297551,12.269198 l -0.3835329,0.456543 -0.088447,-0.515259 z"
     id="path3009"
     inkscape:connector-curvature="0" />
  <path
     style="fill:#ffffff"
     d="M 8.409553,20.302285 C 7.6382894,20.051575 6.6660929,19.317183 5.7384663,18.284559 4.5949449,17.011604 4.0053612,15.721309 3.9872657,14.452083 3.9788951,13.864767 4.0151244,13.767059 4.4831992,13.11471 5.2970015,11.980523 6.4515784,11.156611 7.8373668,10.721156 8.7837231,10.423784 10.379549,10.274 11.335678,10.392804 c 0.574212,0.07135 0.620617,0.09713 0.56145,0.31187 -0.203868,0.739921 -1.390619,6.830105 -1.560768,8.009573 -0.197596,1.369728 -0.20873,1.402526 -0.5210531,1.535055 -0.3387979,0.143762 -1.0446452,0.170365 -1.4057539,0.05297 z"
     id="path3011"
     inkscape:connector-curvature="0" />
  <path
     style="fill:#ffffff"
     d="m 12.756001,21.108532 c -0.592617,-0.185431 -0.895789,-0.352375 -1.451852,-0.799467 l -0.473902,-0.38103 0.07415,-0.65832 c 0.143326,-1.272383 1.54016,-8.347852 1.681251,-8.516138 0.133356,-0.159062 2.998945,2.77521 3.769071,3.859406 0.973468,1.370468 1.780703,2.675037 1.777619,2.872799 -0.0044,0.283006 -0.400716,1.028335 -0.767967,1.444315 -0.417287,0.472657 -1.590813,1.41713 -2.188804,1.761584 -0.458889,0.26433 -1.422479,0.570945 -1.76016,0.560083 -0.123622,-0.004 -0.420356,-0.06843 -0.65941,-0.143232 z"
     id="path3013"
     inkscape:connector-curvature="0" />
  <path
     style="fill:#ffffff"
     d="m 18.497582,16.639205 c -1.434609,-2.298777 -2.115341,-3.182615 -3.594005,-4.666323 -0.854781,-0.857698 -1.514185,-1.599194 -1.465342,-1.647769 0.164079,-0.16318 1.351842,0.236313 3.003072,1.010051 2.775578,1.300589 3.150914,1.426965 3.803411,1.280609 0.322988,-0.07244 0.378946,-0.05351 0.432923,0.146516 0.314369,1.164982 -0.418872,3.445345 -1.274715,3.964334 -0.468914,0.284354 -0.686439,0.263349 -0.905344,-0.08742 z"
     id="path3015"
     inkscape:connector-curvature="0" />
  <path
     style="fill:#ffffff"
     d="m 19.710316,11.990008 c -0.438155,-0.08185 -1.34062,-0.45671 -2.879521,-1.196044 C 15.964222,10.377635 14.961822,9.9543265 14.60324,9.8532788 14.244659,9.75223 13.936824,9.6570866 13.919164,9.6418476 13.901503,9.6266087 14.039613,9.3568197 14.226073,9.0423168 15.109295,7.5525844 15.758432,6.0760781 15.9648,5.0874617 c 0.116763,-0.5593603 0.132778,-0.5785741 0.482222,-0.5785741 0.528629,0 1.873742,0.7246352 2.506362,1.3502206 1.994087,1.9719128 2.548896,6.4656848 0.756932,6.1308998 z"
     id="path3017"
     inkscape:connector-curvature="0" />
  <path
     style="fill:#ffffff"
     d="M 12.746298,8.9569442 C 12.737997,8.0622021 12.685734,7.7738901 12.380832,6.9403543 11.951712,5.7672222 11.616437,5.0926365 11.048495,4.2596395 10.545447,3.5218228 10.560341,3.48319 11.534459,2.9990873 c 1.212785,-0.6027116 2.458316,-0.3713438 3.363178,0.6247376 0.214099,0.2356807 0.420419,0.5695586 0.458492,0.7419517 0.135005,0.6113017 -0.697999,2.6562893 -1.915687,4.7029258 -0.652047,1.0959356 -0.682966,1.0909586 -0.694144,-0.1117582 l 0,0 z"
     id="path3019"
     inkscape:connector-curvature="0" />
  <path
     style="fill:#ff2a2a"
     d="M 11.506396,23.356057 C 8.7135156,23.022246 6.5501007,22.377143 5.0751987,21.438351 4.1617232,20.856914 2.2753422,18.65987 1.673737,17.47671 0.37196268,14.916552 0.27701397,9.7837358 1.4731379,6.6325569 1.7956397,5.7829293 2.3721615,5.0500507 3.6781002,3.8295923 4.8632465,2.7220202 5.722326,2.1233841 6.9587614,1.5435156 8.5227528,0.81002869 9.1303739,0.67840845 10.963091,0.67611332 c 1.380998,-0.00169 1.712552,0.0347104 2.684591,0.29503243 5.000146,1.33910495 7.926317,3.67951855 9.162229,7.32814455 0.786,2.3204117 0.741119,5.7787837 -0.107884,8.3128987 -0.633914,1.892125 -1.853574,3.764674 -3.144186,4.827286 -0.963533,0.793316 -2.441972,1.510075 -3.539325,1.715896 -0.852729,0.159937 -3.768143,0.289607 -4.51212,0.200686 l 0,0 z m 2.542177,-1.554256 c 0.743511,-0.121092 1.484341,-0.481637 2.401907,-1.168956 1.321433,-0.989842 1.838019,-1.592838 2.149399,-2.508941 0.143685,-0.422728 0.210514,-0.485076 0.659486,-0.615272 0.898093,-0.260437 1.617516,-1.265657 1.969992,-2.752597 0.194664,-0.821194 0.202588,-1.840663 0.01833,-2.358389 -0.109372,-0.307313 -0.106768,-0.446889 0.01389,-0.744444 0.20509,-0.505748 0.188318,-2.0908465 -0.03109,-2.9384185 C 20.974742,7.7268372 20.315661,6.3906963 19.742197,5.6976045 19.415939,5.3032865 18.9621,4.9350043 18.393757,4.60337 17.367755,4.0046891 16.848796,3.8257803 16.29152,3.8786332 15.912849,3.9145464 15.856973,3.8848953 15.677289,3.5531148 15.568582,3.3523491 15.279636,3.0251031 15.035194,2.8259 13.677629,1.7195784 11.959246,1.7416114 10.447849,2.8847148 9.9402847,3.2685969 9.8456513,3.3031601 9.5786167,3.2021908 9.1494045,3.0398997 7.6262298,3.0521109 7.0512882,3.2224485 4.2350337,4.0568362 2.5593755,7.9097785 3.1784595,12.127476 c 0.095966,0.653796 0.1721597,1.610477 0.1693202,2.125959 -0.00624,1.132816 0.2583603,2.1042 0.8485684,3.115204 0.570589,0.977397 2.3785883,2.760834 3.2895853,3.244892 0.6380471,0.339028 0.7907595,0.375292 1.5803657,0.375292 0.6591175,0 0.9475729,-0.04789 1.1729659,-0.194771 0.29791,-0.194127 0.300637,-0.193501 0.825614,0.189754 0.598832,0.437171 1.145184,0.685123 1.789646,0.812193 0.24463,0.04823 0.46923,0.09275 0.499111,0.09892 0.02988,0.0062 0.342604,-0.03573 0.694937,-0.09312 l 0,0 z"
     id="path3025"
     inkscape:connector-curvature="0" />
</svg>
