<?xml version="1.0" encoding="UTF-8" standalone="no"?>
<svg
   xmlns:dc="http://purl.org/dc/elements/1.1/"
   xmlns:cc="http://creativecommons.org/ns#"
   xmlns:rdf="http://www.w3.org/1999/02/22-rdf-syntax-ns#"
   xmlns:svg="http://www.w3.org/2000/svg"
   xmlns="http://www.w3.org/2000/svg"
   xmlns:xlink="http://www.w3.org/1999/xlink"
   xmlns:sodipodi="http://sodipodi.sourceforge.net/DTD/sodipodi-0.dtd"
   xmlns:inkscape="http://www.inkscape.org/namespaces/inkscape"
   width="29.999763"
   height="30.000469"
   id="svg2"
   version="1.1"
   inkscape:version="0.48.4 r9939"
   sodipodi:docname="mangcut.svg">
  <sodipodi:namedview
     pagecolor="#ffffff"
     bordercolor="#666666"
     borderopacity="1"
     objecttolerance="10"
     gridtolerance="10"
     guidetolerance="10"
     inkscape:pageopacity="0"
     inkscape:pageshadow="2"
     inkscape:window-width="1280"
     inkscape:window-height="738"
     id="namedview32"
     showgrid="false"
     inkscape:zoom="4.9166667"
     inkscape:cx="22.999339"
     inkscape:cy="24.000105"
     inkscape:window-x="-8"
     inkscape:window-y="-8"
     inkscape:window-maximized="1"
     inkscape:current-layer="svg2"
     fit-margin-top="0"
     fit-margin-left="0"
     fit-margin-right="0"
     fit-margin-bottom="0" />
  <defs
     id="defs4">
    <linearGradient
       id="linearGradient4415">
      <stop
         offset="0"
         id="stop4417"
         stop-color="#ffffff" />
      <stop
         offset="1"
         id="stop4419"
         stop-color="#ded3d5" />
    </linearGradient>
    <linearGradient
       id="linearGradient4409">
      <stop
         id="stop4411"
         offset="0"
         stop-color="#e15f5f" />
      <stop
         id="stop4413"
         offset="1"
         stop-color="#823632" />
    </linearGradient>
    <radialGradient
       xlink:href="#linearGradient4409"
       id="radialGradient4462"
       gradientUnits="userSpaceOnUse"
       gradientTransform="matrix(1.0255035,-0.02550347,0.02306095,0.92728918,-21.032373,49.749922)"
       cx="294.64148"
       cy="586.18536"
       fx="294.64148"
       fy="586.18536"
       r="83.177727" />
    <radialGradient
       xlink:href="#linearGradient4415"
       id="radialGradient4464"
       gradientUnits="userSpaceOnUse"
       gradientTransform="matrix(0.94503453,-0.32697054,0.44196492,1.2773998,-237.08317,-66.281536)"
       cx="273.30185"
       cy="575.56262"
       fx="273.30185"
       fy="575.56262"
       r="31.99832" />
    <radialGradient
       xlink:href="#linearGradient4415"
       id="radialGradient4466"
       gradientUnits="userSpaceOnUse"
       gradientTransform="matrix(1.0491401,-0.29484038,0.36469362,1.2977011,-220.46728,-74.517811)"
       cx="308.2821"
       cy="562.9884"
       fx="308.2821"
       fy="562.9884"
       r="28.77924" />
    <radialGradient
       xlink:href="#linearGradient4415"
       id="radialGradient4468"
       gradientUnits="userSpaceOnUse"
       gradientTransform="matrix(0.91626617,0.40056998,-0.52666097,1.2046874,337.00985,-254.11299)"
       cx="327.56168"
       cy="587.82001"
       fx="327.56168"
       fy="587.82001"
       r="29.537689" />
    <radialGradient
       xlink:href="#linearGradient4415"
       id="radialGradient4470"
       gradientUnits="userSpaceOnUse"
       gradientTransform="matrix(0.31339476,0.8286615,-0.85394691,0.32295754,735.57363,139.6138)"
       cx="323.31052"
       cy="601.42725"
       fx="323.31052"
       fy="601.42725"
       r="29.865919" />
    <radialGradient
       xlink:href="#linearGradient4415"
       id="radialGradient4472"
       gradientUnits="userSpaceOnUse"
       gradientTransform="matrix(-0.73113962,0.86556981,-1.0127268,-0.85544191,1158.6011,869.49098)"
       cx="310.11206"
       cy="613.94031"
       fx="310.11206"
       fy="613.94031"
       r="20.423161" />
    <radialGradient
       xlink:href="#linearGradient4415"
       id="radialGradient4474"
       gradientUnits="userSpaceOnUse"
       gradientTransform="matrix(-0.9263463,-0.37667298,0.38808559,-0.95441317,290.69395,1296.0407)"
       cx="273.84943"
       cy="610.26447"
       fx="273.84943"
       fy="610.26447"
       r="32.796692" />
  </defs>
  <metadata
     id="metadata7">image/svg+xml<rdf:RDF>
  <cc:Work
     rdf:about="">
    <dc:format>image/svg+xml</dc:format>
    <dc:type
       rdf:resource="http://purl.org/dc/dcmitype/StillImage" />
  </cc:Work>
</rdf:RDF>
</metadata>
  <g
     id="g20"
     transform="matrix(0.6678082,0,0,-0.66415041,-0.70597155,31.010894)"
     style="fill:#ffffff">
    <title
       id="title22">Layer 1</title>
    <g
       id="g4453"
       style="fill:#ffffff">
      <path
         id="path3555"
         d="M 2.001001,19.184404 C 1,22.848415 1.625626,33.433395 4.503488,36.826007 7.381366,40.218589 14.763716,48.360889 26.024927,45.646773 37.286156,42.932696 44.668514,36.961726 45.419258,25.562522 46.170013,14.163333 40.038914,3.714074 30.404308,2.35703 20.769703,0.999999 11.135091,3.985483 8.132117,7.513807 5.129116,11.042126 2.501506,13.756224 2.001001,19.184401 l 0,2e-6 z"
         style="fill:#ffffff;stroke:#000000;stroke-width:1px"
         inkscape:connector-curvature="0" />
      <path
         id="path3553"
         d="m 8.382352,22.848415 c 0,0 -2.377371,-5.021036 2.752743,-10.856329 5.13012,-5.8353 8.508489,-4.749683 10.009959,-2.84983 2.127142,4.342544 4.004007,18.048707 3.25326,18.998652 -0.75075,0.949942 -12.011971,2.171274 -16.015964,-5.292494 l 2e-6,0 z"
         style="fill:#ffffff;stroke:#000000;stroke-width:1px"
         inkscape:connector-curvature="0" />
      <path
         id="path3543"
         d="m 24.022951,26.919546 c 0,0 -3.503506,-15.741723 -3.253246,-18.048704 2.377361,-2.306963 5.505474,-4.206836 9.759735,-1.22134 4.254213,2.985505 4.254213,3.935449 4.754736,5.021079 0.500481,1.085646 1.251251,4.342547 -1.376385,7.192348 -2.627609,2.849775 -7.006992,7.599457 -7.882864,8.006565 -0.875864,0.407099 -1.626614,0.67849 -2.001976,-0.949947 z"
         style="fill:#ffffff;stroke:#000000;stroke-width:1px"
         inkscape:connector-curvature="0" />
      <path
         id="path3545"
         d="m 35.546097,14.398195 c 0,0 2.240551,-1.049084 3.867172,2.343517 1.626644,3.392637 2.252262,8.685095 -3.503471,10.042137 -5.755732,1.357059 -9.759743,1.899866 -10.635599,1.357059 -0.875883,-0.542828 2.013653,-3.436043 4.140774,-5.200199 2.127125,-1.764166 6.131124,-8.542515 6.131124,-8.542515 z"
         style="fill:#ffffff;stroke:#000000;stroke-width:1px"
         inkscape:connector-curvature="0" />
      <path
         id="path3547"
         d="m 25.023943,28.005186 c 0,0 2.627617,6.242426 4.254246,8.956518 1.626637,2.714088 3.128103,2.306995 6.631613,0.135704 3.503471,-2.171299 6.005985,-9.770723 4.00399,-12.891933 -2.001995,-3.12122 -9.509481,4.342545 -14.889847,3.799711 l -2e-6,0 z"
         style="fill:#ffffff;stroke:#000000;stroke-width:1px"
         inkscape:connector-curvature="0" />
      <path
         id="path3549"
         d="m 19.893837,39.811489 c 0,0 3.253229,-8.41367 4.129118,-11.399197 0.875864,-2.985485 2.001974,-0.271379 2.752726,0.949944 0.750757,1.221336 4.254248,7.192352 3.62863,9.363621 -0.625633,2.171276 -5.255232,6.37809 -10.510473,1.085632 z"
         style="fill:#ffffff;stroke:#000000;stroke-width:1px"
         inkscape:connector-curvature="0" />
      <path
         id="path3551"
         d="m 23.522448,27.598082 c 0,0 -10.385345,2.243057 -15.39033,-6.378099 -2.752748,9.906422 1.876866,22.255524 12.011962,18.455814 2.127115,-1.76416 6.256224,-11.127777 3.378368,-12.077715 z"
         style="fill:#ffffff;stroke:#000000;stroke-width:1px"
         inkscape:connector-curvature="0" />
    </g>
  </g>
  <path
     style="fill:#ffffff"
     d="M 4.7810093,15.262571 C 4.5650691,14.004588 4.6807863,11.061145 4.9921984,9.8906479 5.9980969,6.1097994 8.4513905,4.1458406 11.414869,4.7490405 c 0.853049,0.173634 1.06038,0.274019 1.430617,0.6926732 1.355282,1.5325204 2.818775,5.8368993 2.247485,6.6102373 -0.05814,0.07869 -0.921839,0.137972 -2.069258,0.142008 -1.423371,0.005 -2.214271,0.07207 -2.852334,0.241832 -1.9179184,0.510308 -3.6942981,1.583515 -4.8003985,2.900177 L 4.8915682,15.906646 4.7810103,15.262571 z"
     id="path3009"
     inkscape:connector-curvature="0" />
  <path
     style="fill:#ffffff"
     d="M 10.510944,25.377322 C 9.54687,25.063935 8.3316344,24.145944 7.1721103,22.855165 5.74272,21.263972 5.0057461,19.651104 4.983127,18.064572 c -0.010463,-0.734145 0.034823,-0.85628 0.6199121,-1.671716 1.0172445,-1.417732 2.4604542,-2.447621 4.1926759,-2.991941 1.182937,-0.371714 3.177703,-0.558944 4.372855,-0.410439 0.717759,0.08919 0.775766,0.121412 0.701807,0.389838 -0.254833,0.9249 -1.738259,8.537628 -1.950945,10.011961 -0.246991,1.71216 -0.260909,1.753156 -0.651312,1.918819 -0.423491,0.179702 -1.305795,0.212955 -1.757176,0.06621 z"
     id="path3011"
     inkscape:connector-curvature="0" />
  <path
     style="fill:#ffffff"
     d="M 15.943959,26.385129 C 15.203195,26.15334 14.824234,25.944661 14.12916,25.385797 l -0.592373,-0.476287 0.09269,-0.8229 c 0.179156,-1.590478 1.925185,-10.43481 2.101547,-10.645168 0.166693,-0.198827 3.748651,3.469011 4.711301,4.824256 1.216825,1.713083 2.225859,3.343795 2.222006,3.590997 -0.0056,0.353757 -0.500892,1.285418 -0.959952,1.805392 -0.521604,0.590821 -1.988499,1.771412 -2.735981,2.201978 -0.573608,0.330414 -1.778087,0.713682 -2.200183,0.700106 -0.154528,-0.005 -0.525441,-0.08554 -0.824257,-0.179042 z"
     id="path3013"
     inkscape:connector-curvature="0" />
  <path
     style="fill:#ffffff"
     d="m 23.12088,20.798473 c -1.793248,-2.873469 -2.644155,-3.978266 -4.492473,-5.832901 -1.068465,-1.072121 -1.892716,-1.998992 -1.831662,-2.059709 0.205099,-0.203976 1.689789,0.29539 3.753811,1.262563 3.469444,1.625735 3.938612,1.783706 4.754227,1.600759 0.403731,-0.09055 0.473678,-0.06689 0.541148,0.183146 0.392957,1.456228 -0.523585,4.306679 -1.59338,4.955415 -0.586138,0.355443 -0.858043,0.329186 -1.131671,-0.109275 z"
     id="path3015"
     inkscape:connector-curvature="0" />
  <path
     style="fill:#ffffff"
     d="m 24.636784,14.986981 c -0.547689,-0.102314 -1.675759,-0.570888 -3.599371,-1.495055 -1.08321,-0.520411 -2.336198,-1.049547 -2.784423,-1.175856 -0.448222,-0.126312 -0.833013,-0.245241 -0.855088,-0.264289 -0.02208,-0.01906 0.150561,-0.356284 0.383632,-0.749414 1.104019,-1.8621631 1.915435,-3.7077966 2.173394,-4.9435664 0.145951,-0.6992001 0.16597,-0.7232174 0.602772,-0.7232174 0.66078,0 2.342158,0.9057936 3.132927,1.687775 2.492589,2.4648907 3.186094,8.0821028 0.946157,7.6636228 z"
     id="path3017"
     inkscape:connector-curvature="0" />
  <path
     style="fill:#ffffff"
     d="M 15.931831,11.195652 C 15.921444,10.077225 15.856128,9.7168339 15.475002,8.6749159 14.938607,7.2085007 14.519516,6.3652689 13.809593,5.3240232 13.180789,4.4017528 13.199406,4.353462 14.417044,3.7483337 c 1.51597,-0.7533892 3.07287,-0.4641796 4.20394,0.7809217 0.26762,0.2946007 0.52552,0.7119478 0.57311,0.9274392 0.168755,0.7641267 -0.872492,3.3203603 -2.394589,5.8786554 -0.815053,1.369919 -0.853701,1.363698 -0.867674,-0.139698 l 0,0 z"
     id="path3019"
     inkscape:connector-curvature="0" />
  <path
     style="fill:#ff2a2a"
     d="M 14.381966,29.194535 C 10.890893,28.777271 8.1866453,27.970893 6.3430322,26.797403 5.2011971,26.070607 2.8432394,23.324304 2.0912389,21.845355 0.46403404,18.645159 0.3453491,12.22914 1.8404922,8.2901689 2.2436162,7.2281347 2.9642626,6.3120369 4.5966731,4.7864646 6.0780943,3.402 7.1519351,2.6537052 8.6974671,1.9288699 10.652441,1.0120118 11.411961,0.84748646 13.702839,0.84461756 c 1.726235,-0.00211 2.140675,0.043388 3.355713,0.36879034 6.250134,1.6738806 9.90782,4.5993962 11.452695,9.1601771 0.982493,2.900514 0.926393,7.223476 -0.134852,10.391119 -0.792387,2.365155 -2.316949,4.70584 -3.930203,6.034105 -1.204408,0.991644 -3.052442,1.887593 -4.42412,2.144868 -1.065903,0.199922 -4.710142,0.362009 -5.640106,0.250858 l 0,0 z m 3.177697,-1.94282 c 0.929379,-0.151364 1.85541,-0.602044 3.002359,-1.461193 1.651779,-1.237303 2.297505,-1.991047 2.686728,-3.136176 0.179604,-0.528409 0.26314,-0.606344 0.824351,-0.769089 1.122605,-0.325546 2.021878,-1.582071 2.46247,-3.440745 0.243328,-1.026492 0.253233,-2.300828 0.02291,-2.947985 -0.136715,-0.384141 -0.133459,-0.55861 0.01736,-0.930554 0.256362,-0.632184 0.235396,-2.613557 -0.03886,-3.673022 C 26.217306,9.6580189 25.393463,7.9878431 24.676638,7.1214787 24.268819,6.6285814 23.701525,6.1682288 22.991102,5.7536864 21.708609,5.0053354 21.059917,4.7816995 20.363327,4.8477656 19.889993,4.8926567 19.820148,4.8555939 19.595545,4.4408677 19.459661,4.1899109 19.098483,3.7808534 18.792932,3.5318497 17.095988,2.1489483 14.948026,2.1764896 13.058798,3.6053686 12.424347,4.0852209 12.306055,4.1284249 11.972262,4.0022134 11.435753,3.7993495 9.5317993,3.8146137 8.8131273,4.0275356 5.2928372,5.0705199 3.1982811,9.8866959 3.9721299,15.158815 c 0.1199567,0.817245 0.2151979,2.013097 0.2116487,2.657448 -0.00779,1.41602 0.3229478,2.630248 1.0607021,3.894004 0.7132307,1.221746 2.9732119,3.451041 4.111949,4.056111 0.7975543,0.423787 0.9884423,0.469118 1.9754413,0.469118 0.823892,0 1.184458,-0.05986 1.466197,-0.243464 0.372384,-0.24266 0.375793,-0.241877 1.032009,0.23719 0.748534,0.546466 1.43147,0.856405 2.237039,1.015243 0.305786,0.0603 0.586534,0.115937 0.623884,0.12365 0.03737,0.0078 0.428252,-0.04467 0.868665,-0.1164 l 0,0 z"
     id="path3025"
     inkscape:connector-curvature="0" />
</svg>
