<!-- Created with Inkscape (http://www.inkscape.org/) -->
<svg xmlns:rdf="http://www.w3.org/1999/02/22-rdf-syntax-ns#" xmlns="http://www.w3.org/2000/svg" height="30" width="131.41" version="1.2" xmlns:cc="http://creativecommons.org/ns#" xmlns:xlink="http://www.w3.org/1999/xlink" xmlns:dc="http://purl.org/dc/elements/1.1/">
<defs></defs>
<metadata>
<rdf:RDF>
<cc:Work rdf:about="">
<dc:format>image/svg+xml</dc:format>
<dc:type rdf:resource="http://purl.org/dc/dcmitype/StillImage"/>
<dc:title/>
</cc:Work>
</rdf:RDF>
</metadata>
<g transform="translate(5.7742e-8,-1022.3622)">
<flowRoot style="letter-spacing:0px;word-spacing:0px;" font-weight="normal" xml:space="preserve" transform="matrix(0.29983603,0,0,0.29983603,-52.550157,859.0389)" font-style="normal" font-stretch="normal" line-height="125%" font-size="72px" font-variant="normal" font-family="Shonar Bangla" fill="#000000"><flowRegion><rect height="93.75" width="331.25" y="569.03" x="200"/></flowRegion><flowPara/></flowRoot>
<g style="letter-spacing:0px;word-spacing:0px;" font-weight="normal" font-size="11.99344063px" font-style="normal" font-stretch="normal" line-height="125%" font-variant="normal" font-family="Shonar Bangla" fill="#a02c2c">
<path d="m6.6409,1028.3,0,2.1504c0.8995-0.9698,1.7287-1.6515,2.4877-2.045,0.75895-0.3935,1.5952-0.5903,2.5088-0.5903,1.04,0,1.915,0.246,2.6247,0.7379,0.70975,0.4919,1.2614,1.2368,1.655,2.2347,0.9276-1.0541,1.8166-1.8131,2.6669-2.2769s1.7463-0.6957,2.688-0.6957c1.1244,0,2.0204,0.26,2.688,0.78,0.66758,0.5201,1.1314,1.1771,1.3914,1.9712,0.25999,0.7941,0.38999,2.0626,0.39002,3.8054v6.683c-0.000027,1.265,0.11241,2.0485,0.33732,2.3507,0.22485,0.3022,0.70271,0.4954,1.4336,0.5798v0.6324h-8.4329v-0.6324c0.66056-0.056,1.1525-0.3093,1.4758-0.759,0.19674-0.3233,0.29513-1.0471,0.29515-2.1715v-6.9993c-0.000022-1.4617-0.05624-2.3893-0.16866-2.7828-0.11246-0.3935-0.29517-0.6852-0.54814-0.8749-0.25301-0.1898-0.54816-0.2846-0.88545-0.2846-0.49194,0-0.9944,0.1827-1.5074,0.5481-0.51302,0.3654-1.0295,0.9136-1.5495,1.6444v8.7491c-0.000017,1.1806,0.09837,1.9185,0.29515,2.2137,0.26702,0.4357,0.78002,0.6746,1.539,0.7168v0.6324h-8.454v-0.6324c0.44974-0.014,0.80814-0.123,1.0752-0.3268,0.26703-0.2038,0.44272-0.4498,0.52706-0.7379,0.08432-0.2881,0.12648-0.91,0.12649-1.8658v-6.9993c-0.000012-1.4898-0.05623-2.4174-0.16866-2.7828-0.11245-0.3654-0.3057-0.6536-0.57976-0.8644-0.27408-0.2108-0.57274-0.3162-0.89599-0.3162-0.46382,0-0.88546,0.1194-1.2649,0.3584-0.54815,0.3654-1.1314,0.9838-1.7498,1.8552v8.7491c-0.0000079,1.1525,0.11243,1.9115,0.33732,2.2769,0.22487,0.3654,0.70273,0.5833,1.4336,0.6536v0.6324h-8.4118v-0.6324c0.68928,0,1.1742-0.2,1.4553-0.5,0.19676-0.253,0.29515-1.0119,0.29515-2.2769v-9.2129c-0.0000031-1.2228-0.11244-1.9852-0.33732-2.2874s-0.69572-0.5025-1.4125-0.6009v-0.6535z"/>
<path d="m38.644,1042.2c-1.9817,1.7569-3.7667,2.6353-5.3549,2.6353-0.92762,0-1.7006-0.3057-2.319-0.9171-0.61841-0.6113-0.92762-1.3738-0.92762-2.2874-0.000002-1.2508,0.53408-2.3752,1.6022-3.3731,1.0682-0.9979,3.4013-2.3191,6.9993-3.9635v-1.6444c-0.00001-1.2228-0.06677-1.9958-0.20028-2.319-0.13353-0.3233-0.38652-0.6044-0.75896-0.8433-0.37246-0.239-0.79059-0.3584-1.2544-0.3584-0.75897,0-1.3844,0.1686-1.8763,0.5059-0.29516,0.2109-0.44273,0.4568-0.44273,0.7379-0.000005,0.239,0.16162,0.5411,0.48489,0.9066,0.44975,0.4919,0.67462,0.9768,0.67463,1.4546-0.000007,0.5622-0.21434,1.0436-0.64301,1.4442-0.42868,0.4005-0.98736,0.6008-1.676,0.6008-0.73085,0-1.3422-0.2213-1.8342-0.6641-0.49192-0.4427-0.73788-0.9592-0.73788-1.5495-0.000002-0.8433,0.33029-1.6444,0.99086-2.4034,0.66057-0.7589,1.5847-1.3422,2.7723-1.7498s2.4209-0.6114,3.6999-0.6114c1.546,0,2.7688,0.3303,3.6683,0.9909,0.89949,0.6605,1.4828,1.3703,1.7498,2.1293,0.16864,0.4919,0.25297,1.6163,0.25299,3.3731v6.3247c-0.000015,0.7449,0.02809,1.2157,0.08433,1.4125,0.0562,0.1968,0.14405,0.3408,0.26353,0.4322,0.11945,0.091,0.24946,0.137,0.39002,0.137,0.30919,0,0.6184-0.2178,0.92762-0.6535l0.52706,0.4216c-0.57626,0.8573-1.1771,1.4828-1.8025,1.8763-0.62545,0.3936-1.3317,0.5903-2.1188,0.5903-0.92763,0-1.655-0.2178-2.182-0.6535-0.52707-0.4357-0.84681-1.0963-0.95924-1.9818zm0-1.286,0-5.4603c-1.4055,0.8293-2.4526,1.7147-3.1413,2.6564-0.44976,0.6325-0.67464,1.2649-0.67463,1.8974-0.000006,0.5341,0.18973,1.0049,0.56922,1.4125,0.29514,0.3233,0.70273,0.4849,1.2228,0.4849,0.57624,0,1.2509-0.3303,2.0239-0.9909z"/>
<path d="m54.181,1028.3,0,2.1082c0.84328-0.8995,1.6479-1.5566,2.4139-1.9712,0.76598-0.4146,1.5917-0.6219,2.4772-0.6219,1.0541,0,1.929,0.2952,2.6247,0.8854,0.6957,0.5904,1.163,1.3212,1.402,2.1926,0.1827,0.6606,0.27405,1.9325,0.27407,3.8159v6.3457c-0.000017,1.265,0.11242,2.0485,0.33732,2.3507,0.22486,0.3022,0.70272,0.4954,1.4336,0.5798v0.6324h-8.2642v-0.6324c0.6184-0.084,1.0611-0.3374,1.3282-0.759,0.19676-0.2952,0.29514-1.019,0.29515-2.1715v-7.2523c-0.000012-1.3352-0.05272-2.1784-0.15812-2.5298-0.10542-0.3514-0.28462-0.6219-0.5376-0.8117-0.253-0.1897-0.52707-0.2846-0.82221-0.2846-1.012,0-1.9466,0.7168-2.8039,2.1504v8.728c-0.000008,1.2228,0.11243,1.9958,0.33732,2.3191,0.22487,0.3232,0.64651,0.527,1.2649,0.6114v0.6324h-8.2431v-0.6324c0.68868-0.07,1.1736-0.2882,1.4547-0.6536,0.19676-0.253,0.29515-1.0119,0.29515-2.2769v-9.2129c-0.000003-1.2228-0.11244-1.9852-0.33732-2.2874s-0.69572-0.5025-1.4125-0.6009v-0.6535z"/>
<path d="m77.899,1028.5,5.4814,0,0,1.9185-3.1202,0c0.57623,0.5763,0.96977,1.0963,1.1806,1.5601,0.28108,0.6325,0.42163,1.293,0.42164,1.9817-0.000015,1.1525-0.32328,2.1574-0.96978,3.0148-0.64654,0.8573-1.525,1.5284-2.6353,2.0133s-2.0942,0.7274-2.9515,0.7274c-0.07028,0-0.766-0.028-2.0871-0.084-0.52004,0-0.95925,0.1687-1.3176,0.506-0.3584,0.3373-0.5376,0.7449-0.5376,1.2228-0.000005,0.4216,0.16162,0.766,0.48489,1.033,0.32325,0.267,0.84328,0.4006,1.5601,0.4006l3.0148-0.042c2.4455,0,4.1251,0.2741,5.0387,0.8222,1.3211,0.7309,1.9817,1.8763,1.9817,3.4364-0.000017,0.9838-0.3022,1.8798-0.90654,2.688-0.60437,0.8081-1.4055,1.402-2.4034,1.7814-1.4898,0.5763-3.2115,0.8644-5.1651,0.8644-1.4758,0-2.818-0.1441-4.0267-0.4322s-2.0731-0.6852-2.5931-1.1911c-0.52003-0.506-0.78004-1.0401-0.78004-1.6023-0.000002-0.5341,0.20028-1.0119,0.60084-1.4336,0.40056-0.4216,1.149-0.78,2.2453-1.0752-1.5179-0.7449-2.2769-1.7779-2.2769-3.099-0.000002-0.8012,0.3092-1.5812,0.92762-2.3402,0.61841-0.7589,1.5952-1.4125,2.9304-1.9606-1.5601-0.5763-2.688-1.3282-3.3837-2.2558-0.69572-0.9276-1.0436-2.0028-1.0436-3.2256-0.000002-1.6022,0.65003-2.9866,1.9501-4.1532,1.3001-1.1665,2.9761-1.7498,5.0281-1.7498,1.0822,0,2.1996,0.2249,3.3521,0.6746zm-3.0358,0.4006c-0.67464,0-1.2439,0.3408-1.7077,1.0225-0.46382,0.6816-0.69572,2.0977-0.69571,4.248-0.000006,1.7288,0.2319,2.9164,0.69571,3.5629,0.4638,0.6466,1.0049,0.9698,1.6233,0.9698,0.70273,0,1.286-0.3197,1.7498-0.9592s0.6957-1.8869,0.69571-3.7421c-0.000011-2.0801-0.26002-3.4997-0.78004-4.2586-0.37949-0.5622-0.90654-0.8433-1.5812-0.8433zm-1.0119,18.131c-1.1947,0-1.9817,0.098-2.3612,0.2951-0.66058,0.3655-0.99087,0.8574-0.99086,1.4758-0.000004,0.5903,0.34082,1.1279,1.0225,1.6128,0.68165,0.4849,1.9712,0.7273,3.8686,0.7273,1.6163,0,2.8883-0.2178,3.8159-0.6535s1.3914-1.0401,1.3914-1.8131c-0.000014-0.2952-0.09137-0.5411-0.27407-0.7379-0.30922-0.3513-0.78006-0.5903-1.4125-0.7168-0.63248-0.1265-2.3191-0.1897-5.0597-0.1897z"/>
<path d="m98.602,1040.5,0.54814,0.4005c-0.77303,1.4477-1.7323,2.5229-2.8777,3.2256-1.1455,0.7027-2.3577,1.0541-3.6367,1.0541-2.1785,0-3.9178-0.8187-5.2178-2.4561-1.3001-1.6374-1.9501-3.6085-1.9501-5.9135-0.000001-2.2207,0.5903-4.1743,1.7709-5.8609,1.4336-2.0379,3.4013-3.0569,5.903-3.0569,1.6866,0,3.0288,0.4252,4.0267,1.2755,0.99788,0.8503,1.4968,1.7955,1.4968,2.8355-0.000014,0.6747-0.2003,1.2087-0.60084,1.6023-0.40058,0.3935-0.93114,0.5903-1.5917,0.5903-0.67464,0-1.2368-0.2284-1.6866-0.6852-0.44976-0.4568-0.73086-1.2614-0.84329-2.4139-0.05623-0.7449-0.21786-1.2579-0.48489-1.539-0.28111-0.2952-0.59734-0.4427-0.9487-0.4427-0.5622,0-1.0401,0.2951-1.4336,0.8854-0.60436,0.8995-0.90654,2.2769-0.90654,4.1321-0.000006,1.532,0.24244,2.9972,0.72734,4.3957,0.48488,1.3984,1.156,2.442,2.0134,3.1307,0.63246,0.506,1.3844,0.7589,2.2558,0.7589,0.57624,0,1.1209-0.1335,1.6339-0.4005,0.51299-0.2671,1.1138-0.773,1.8025-1.5179z"/>
<path d="m116.9,1028.3,0,12.776c-0.00002,1.2509,0.11593,2.0274,0.34785,2.3296,0.23189,0.3022,0.70624,0.4954,1.423,0.5798v0.6324h-6.6409v-2.1715c-0.78708,0.9277-1.5706,1.6023-2.3507,2.0239-0.78005,0.4217-1.6479,0.6325-2.6037,0.6325-0.92762,0-1.7498-0.2811-2.4666-0.8433s-1.1947-1.2227-1.4336-1.9817c-0.23893-0.759-0.3584-2.0801-0.3584-3.9635v-6.4722c0-1.2228-0.11595-1.9852-0.34785-2.2874-0.23191-0.3022-0.70626-0.5025-1.423-0.6009v-0.6535h6.6409v11.152c-0.00001,1.1665,0.0562,1.9185,0.16865,2.2558,0.11243,0.3373,0.28812,0.5938,0.52706,0.7695,0.23892,0.1757,0.51299,0.2635,0.82221,0.2635,0.42163,0,0.80111-0.1124,1.1384-0.3373,0.46379-0.3092,1.026-0.9206,1.6866-1.8342v-8.728c-0.00001-1.2228-0.11596-1.9852-0.34785-2.2874-0.23192-0.3022-0.70627-0.5025-1.423-0.6009v-0.6535z"/>
<path d="m127.53,1022.4,0,5.9663,3.8791,0,0,1.7287-3.8791,0,0,10.077c-0.00001,0.9417,0.0422,1.5496,0.12649,1.8236,0.0843,0.2741,0.23893,0.4955,0.46381,0.6641,0.22487,0.1687,0.42867,0.253,0.61139,0.253,0.75895,0,1.4757-0.5762,2.1504-1.7287l0.52706,0.3794c-0.47787,1.1244-1.0998,1.9642-1.8658,2.5194-0.76599,0.5551-1.676,0.8327-2.7301,0.8327-1.026,0-1.8974-0.2881-2.6142-0.8643-0.7168-0.5763-1.1736-1.2228-1.3703-1.9396-0.1265-0.3935-0.18975-1.4617-0.18974-3.2045v-8.8124h-2.1293v-0.6114c1.4758-1.0259,2.7266-2.1117,3.7526-3.2572,1.026-1.1454,1.9255-2.4209,2.6985-3.8264z"/>
</g>
<path d="m552.12,641.15a5.2904,5.2904,0,1,1,-10.581,0,5.2904,5.2904,0,1,1,10.581,0z" fill-rule="nonzero" transform="matrix(0.40886732,0,0,0.40886732,-113.03743,786.53734)" stroke-miterlimit="4" stroke-width="0" fill="#a02c2c"/>
<path d="m30.512,1023.5c6.0184,3.7279,9.4535,3.9368,13.555,0z" stroke-miterlimit="4" stroke-width="0" fill="#a02c2c"/>
</g>
</svg>
