<?xml version="1.0" encoding="UTF-8" standalone="no"?>
<!-- Created with Inkscape (http://www.inkscape.org/) -->

<svg
   xmlns:dc="http://purl.org/dc/elements/1.1/"
   xmlns:cc="http://creativecommons.org/ns#"
   xmlns:rdf="http://www.w3.org/1999/02/22-rdf-syntax-ns#"
   xmlns:svg="http://www.w3.org/2000/svg"
   xmlns="http://www.w3.org/2000/svg"
   xmlns:xlink="http://www.w3.org/1999/xlink"
   version="1.2"
   width="131.40549"
   height="30"
   id="svg2993">
  <defs
     id="defs2995">
    <linearGradient
       id="linearGradient5284">
      <stop
         id="stop5286"
         style="stop-color:#a02c2c;stop-opacity:1"
         offset="0" />
      <stop
         id="stop5292"
         style="stop-color:#a02c2c;stop-opacity:0.49803922"
         offset="0.77777779" />
      <stop
         id="stop5288"
         style="stop-color:#a02c2c;stop-opacity:0"
         offset="1" />
    </linearGradient>
    <linearGradient
       id="linearGradient3753">
      <stop
         id="stop3755"
         style="stop-color:#ffffff;stop-opacity:1"
         offset="0" />
      <stop
         id="stop3761"
         style="stop-color:#fafafa;stop-opacity:1"
         offset="0.5" />
      <stop
         id="stop3763"
         style="stop-color:#dddddd;stop-opacity:1"
         offset="0.80000001" />
      <stop
         id="stop3757"
         style="stop-color:#bbbbbb;stop-opacity:1"
         offset="1" />
    </linearGradient>
    <radialGradient
       cx="385.6196"
       cy="318.11801"
       r="144.42725"
       fx="385.6196"
       fy="318.11801"
       id="radialGradient3759"
       xlink:href="#linearGradient3753"
       gradientUnits="userSpaceOnUse"
       gradientTransform="matrix(1,0,0,1.0031617,0,-1.0057907)" />
    <linearGradient
       x1="199.99979"
       y1="316.64789"
       x2="568.57166"
       y2="316.64789"
       id="linearGradient5296"
       xlink:href="#linearGradient5284"
       gradientUnits="userSpaceOnUse" />
    <radialGradient
       cx="385.6196"
       cy="318.11801"
       r="144.42725"
       fx="385.6196"
       fy="318.11801"
       id="radialGradient3759-1"
       xlink:href="#linearGradient3753-7"
       gradientUnits="userSpaceOnUse"
       gradientTransform="matrix(1,0,0,1.0031617,0,-1.0057907)" />
    <linearGradient
       id="linearGradient3753-7">
      <stop
         id="stop3755-4"
         style="stop-color:#ffffff;stop-opacity:1"
         offset="0" />
      <stop
         id="stop3761-0"
         style="stop-color:#fafafa;stop-opacity:1"
         offset="0.5" />
      <stop
         id="stop3763-9"
         style="stop-color:#dddddd;stop-opacity:1"
         offset="0.80000001" />
      <stop
         id="stop3757-4"
         style="stop-color:#bbbbbb;stop-opacity:1"
         offset="1" />
    </linearGradient>
    <radialGradient
       cx="385.6196"
       cy="318.11801"
       r="144.42725"
       fx="385.6196"
       fy="318.11801"
       id="radialGradient3807"
       xlink:href="#linearGradient3753-7"
       gradientUnits="userSpaceOnUse"
       gradientTransform="matrix(0.86740977,0,0,0.87015226,53.87733,71.563974)" />
  </defs>
  <metadata
     id="metadata2998">
    <rdf:RDF>
      <cc:Work
         rdf:about="">
        <dc:format>image/svg+xml</dc:format>
        <dc:type
           rdf:resource="http://purl.org/dc/dcmitype/StillImage" />
        <dc:title></dc:title>
      </cc:Work>
    </rdf:RDF>
  </metadata>
  <g
     transform="translate(5.7742e-8,-1022.3622)"
     id="layer2"
     style="display:inline">
    <flowRoot
       transform="matrix(0.29983603,0,0,0.29983603,-52.550157,859.0389)"
       id="flowRoot2996"
       xml:space="preserve"
       style="font-size:72px;font-style:normal;font-variant:normal;font-weight:normal;font-stretch:normal;line-height:125%;letter-spacing:0px;word-spacing:0px;fill:#000000;fill-opacity:1;stroke:none;display:inline;font-family:Shonar Bangla;-inkscape-font-specification:Shonar Bangla"><flowRegion
         id="flowRegion2998"><rect
           width="331.25"
           height="93.75"
           x="200"
           y="569.02887"
           id="rect3000"
           style="font-size:72px" /></flowRegion><flowPara
         id="flowPara3002" /></flowRoot>    <g
       id="text3004"
       style="font-size:11.99344063px;font-style:normal;font-variant:normal;font-weight:normal;font-stretch:normal;line-height:125%;letter-spacing:0px;word-spacing:0px;fill:#a02c2c;fill-opacity:1;stroke:none;display:inline;font-family:Shonar Bangla;-inkscape-font-specification:Shonar Bangla">
      <path
         d="m 6.6408994,1028.3285 0,2.1504 c 0.8994992,-0.9698 1.7287324,-1.6515 2.4877021,-2.045 0.7589487,-0.3935 1.5952095,-0.5903 2.5087845,-0.5903 1.040042,0 1.914953,0.246 2.624736,0.7379 0.709752,0.4919 1.261403,1.2368 1.654954,2.2347 0.9276,-1.0541 1.816566,-1.8131 2.666901,-2.2769 0.850296,-0.4638 1.746289,-0.6957 2.687984,-0.6957 1.124361,0 2.020354,0.26 2.687983,0.78 0.667577,0.5201 1.131386,1.1771 1.391426,1.9712 0.259987,0.7941 0.389994,2.0626 0.390021,3.8054 l 0,6.683 c -2.7e-5,1.265 0.112412,2.0485 0.337316,2.3507 0.224849,0.3022 0.702712,0.4954 1.433591,0.5798 l 0,0.6324 -8.432888,0 0,-0.6324 c 0.660555,-0.056 1.152473,-0.3093 1.475755,-0.759 0.196745,-0.3233 0.295129,-1.0471 0.295151,-2.1715 l 0,-6.9993 c -2.2e-5,-1.4617 -0.05624,-2.3893 -0.168658,-2.7828 -0.11246,-0.3935 -0.295172,-0.6852 -0.548137,-0.8749 -0.253008,-0.1898 -0.548159,-0.2846 -0.885454,-0.2846 -0.491938,0 -0.994397,0.1827 -1.507378,0.5481 -0.51302,0.3654 -1.029534,0.9136 -1.549544,1.6444 l 0,8.7491 c -1.7e-5,1.1806 0.09837,1.9185 0.295151,2.2137 0.267024,0.4357 0.780024,0.6746 1.539003,0.7168 l 0,0.6324 -8.4539709,0 0,-0.6324 c 0.4497429,-0.014 0.8081399,-0.123 1.0751929,-0.3268 0.26703,-0.2038 0.442715,-0.4498 0.527056,-0.7379 0.08432,-0.2881 0.126481,-0.91 0.126493,-1.8658 l 0,-6.9993 c -1.2e-5,-1.4898 -0.05623,-2.4174 -0.168658,-2.7828 -0.11245,-0.3654 -0.305704,-0.6536 -0.579761,-0.8644 -0.27408,-0.2108 -0.5727446,-0.3162 -0.895994,-0.3162 -0.4638194,0 -0.8854634,0.1194 -1.2649333,0.3584 -0.5481469,0.3654 -1.1314211,0.9838 -1.7498243,1.8552 l 0,8.7491 c -7.9e-6,1.1525 0.1124305,1.9115 0.3373156,2.2769 0.2248684,0.3654 0.7027316,0.5833 1.433591,0.6536 l 0,0.6324 -8.411806057741996,0 0,-0.6324 C 0.6886838,1043.9434 1.1735744,1043.7255 1.4546732,1043.3601 c 0.1967644,-0.253 0.295148,-1.0119 0.2951511,-2.2769 l 0,-9.2129 c -3.1e-6,-1.2228 -0.1124415,-1.9852 -0.3373156,-2.2874 -0.2248795,-0.3022 -0.6957153,-0.5025 -1.412508757742,-0.6009 l 0,-0.6535 z"
         id="path3973"
         style="font-size:43.17638779px;font-weight:bold;fill:#a02c2c;fill-opacity:1;-inkscape-font-specification:Shonar Bangla Bold" />
      <path
         d="m 38.64371,1042.2427 c -1.981737,1.7569 -3.766697,2.6353 -5.354884,2.6353 -0.927622,0 -1.700636,-0.3057 -2.319044,-0.9171 -0.618414,-0.6113 -0.92762,-1.3738 -0.927618,-2.2874 -2e-6,-1.2508 0.534081,-2.3752 1.602249,-3.3731 1.068161,-0.9979 3.401258,-2.3191 6.999297,-3.9635 l 0,-1.6444 c -10e-6,-1.2228 -0.06677,-1.9958 -0.200281,-2.319 -0.133531,-0.3233 -0.386517,-0.6044 -0.75896,-0.8433 -0.372462,-0.239 -0.790592,-0.3584 -1.254392,-0.3584 -0.758968,0 -1.384406,0.1686 -1.876318,0.5059 -0.295157,0.2109 -0.442732,0.4568 -0.442727,0.7379 -5e-6,0.239 0.161625,0.5411 0.484891,0.9066 0.449748,0.4919 0.674625,0.9768 0.674632,1.4546 -7e-6,0.5622 -0.214343,1.0436 -0.643008,1.4442 -0.428678,0.4005 -0.987356,0.6008 -1.676037,0.6008 -0.730854,0 -1.342238,-0.2213 -1.834153,-0.6641 -0.491921,-0.4427 -0.73788,-0.9592 -0.737878,-1.5495 -2e-6,-0.8433 0.330286,-1.6444 0.990865,-2.4034 0.660572,-0.7589 1.584675,-1.3422 2.772312,-1.7498 1.187625,-0.4076 2.420933,-0.6114 3.699929,-0.6114 1.546019,0 2.768787,0.3303 3.668307,0.9909 0.899494,0.6605 1.482768,1.3703 1.749824,2.1293 0.168643,0.4919 0.252972,1.6163 0.252987,3.3731 l 0,6.3247 c -1.5e-5,0.7449 0.02809,1.2157 0.08433,1.4125 0.0562,0.1968 0.144046,0.3408 0.263527,0.4322 0.119451,0.091 0.249458,0.137 0.390022,0.137 0.309189,0 0.618395,-0.2178 0.927617,-0.6535 l 0.527056,0.4216 c -0.576264,0.8573 -1.177107,1.4828 -1.80253,1.8763 -0.625454,0.3936 -1.331708,0.5903 -2.118763,0.5903 -0.92763,0 -1.654966,-0.2178 -2.18201,-0.6535 -0.527066,-0.4357 -0.846813,-1.0963 -0.959241,-1.9818 z m 0,-1.286 0,-5.4603 c -1.40549,0.8293 -2.452573,1.7147 -3.141251,2.6564 -0.449761,0.6325 -0.674637,1.2649 -0.674631,1.8974 -6e-6,0.5341 0.189733,1.0049 0.56922,1.4125 0.295144,0.3233 0.702733,0.4849 1.222769,0.4849 0.576238,0 1.250869,-0.3303 2.023893,-0.9909 z"
         id="path3975"
         style="font-size:43.17638779px;font-weight:bold;fill:#a02c2c;fill-opacity:1;-inkscape-font-specification:Shonar Bangla Bold" />
      <path
         d="m 54.181309,1028.3285 0,2.1082 c 0.84328,-0.8995 1.647917,-1.5566 2.413914,-1.9712 0.765977,-0.4146 1.591696,-0.6219 2.477161,-0.6219 1.054097,0 1.929009,0.2952 2.624737,0.8854 0.695697,0.5904 1.163019,1.3212 1.401967,2.1926 0.182696,0.6606 0.274052,1.9325 0.274069,3.8159 l 0,6.3457 c -1.7e-5,1.265 0.112421,2.0485 0.337316,2.3507 0.224859,0.3022 0.702722,0.4954 1.433591,0.5798 l 0,0.6324 -8.264231,0 0,-0.6324 c 0.618401,-0.084 1.061127,-0.3374 1.32818,-0.759 0.196755,-0.2952 0.295139,-1.019 0.295151,-2.1715 l 0,-7.2523 c -1.2e-5,-1.3352 -0.05272,-2.1784 -0.158116,-2.5298 -0.105424,-0.3514 -0.284622,-0.6219 -0.537597,-0.8117 -0.252998,-0.1897 -0.527067,-0.2846 -0.822207,-0.2846 -1.011956,0 -1.9466,0.7168 -2.803935,2.1504 l 0,8.728 c -8e-6,1.2228 0.11243,1.9958 0.337315,2.3191 0.224869,0.3232 0.646513,0.527 1.264934,0.6114 l 0,0.6324 -8.243149,0 0,-0.6324 c 0.688684,-0.07 1.173575,-0.2882 1.454674,-0.6536 0.196764,-0.253 0.295148,-1.0119 0.295151,-2.2769 l 0,-9.2129 c -3e-6,-1.2228 -0.112442,-1.9852 -0.337316,-2.2874 -0.224879,-0.3022 -0.695715,-0.5025 -1.412509,-0.6009 l 0,-0.6535 z"
         id="path3977"
         style="font-size:43.17638779px;font-weight:bold;fill:#a02c2c;fill-opacity:1;-inkscape-font-specification:Shonar Bangla Bold" />
      <path
         d="m 77.89881,1028.5182 5.481377,0 0,1.9185 -3.120168,0 c 0.576232,0.5763 0.969767,1.0963 1.180604,1.5601 0.281081,0.6325 0.421629,1.293 0.421644,1.9817 -1.5e-5,1.1525 -0.323276,2.1574 -0.969782,3.0148 -0.646535,0.8573 -1.52496,1.5284 -2.635277,2.0133 -1.110342,0.4849 -2.094178,0.7274 -2.951511,0.7274 -0.07028,0 -0.765996,-0.028 -2.08714,-0.084 -0.520035,0 -0.959247,0.1687 -1.317639,0.506 -0.358403,0.3373 -0.537602,0.7449 -0.537597,1.2228 -5e-6,0.4216 0.161625,0.766 0.484892,1.033 0.323254,0.267 0.843282,0.4006 1.560084,0.4006 l 3.014757,-0.042 c 2.445525,0 4.125074,0.2741 5.038651,0.8222 1.321136,0.7309 1.981712,1.8763 1.981729,3.4364 -1.7e-5,0.9838 -0.302196,1.8798 -0.906536,2.688 -0.604372,0.8081 -1.405496,1.402 -2.403373,1.7814 -1.489822,0.5763 -3.211535,0.8644 -5.165144,0.8644 -1.475763,0 -2.817996,-0.1441 -4.026704,-0.4322 -1.208717,-0.2881 -2.073088,-0.6852 -2.593113,-1.1911 -0.52003,-0.506 -0.780044,-1.0401 -0.780042,-1.6023 -2e-6,-0.5341 0.200279,-1.0119 0.600843,-1.4336 0.40056,-0.4216 1.148978,-0.78 2.245257,-1.0752 -1.517923,-0.7449 -2.276882,-1.7779 -2.27688,-3.099 -2e-6,-0.8012 0.309203,-1.5812 0.927617,-2.3402 0.618409,-0.7589 1.595217,-1.4125 2.930429,-1.9606 -1.560088,-0.5763 -2.687986,-1.3282 -3.383696,-2.2558 -0.695715,-0.9276 -1.043572,-2.0028 -1.04357,-3.2256 -2e-6,-1.6022 0.650033,-2.9866 1.950105,-4.1532 1.300066,-1.1665 2.976101,-1.7498 5.02811,-1.7498 1.082211,0 2.199568,0.2249 3.352073,0.6746 z m -3.03584,0.4006 c -0.674639,0 -1.243858,0.3408 -1.70766,1.0225 -0.463815,0.6816 -0.695719,2.0977 -0.695713,4.248 -6e-6,1.7288 0.231898,2.9164 0.695713,3.5629 0.463802,0.6466 1.004911,0.9698 1.623331,0.9698 0.702732,0 1.286006,-0.3197 1.749824,-0.9592 0.463799,-0.6395 0.695703,-1.8869 0.695714,-3.7421 -1.1e-5,-2.0801 -0.260025,-3.4997 -0.780042,-4.2586 -0.37949,-0.5622 -0.906545,-0.8433 -1.581167,-0.8433 z m -1.011947,18.1307 c -1.194665,0 -1.981734,0.098 -2.361208,0.2951 -0.660581,0.3655 -0.990869,0.8574 -0.990865,1.4758 -4e-6,0.5903 0.340825,1.1279 1.022488,1.6128 0.681653,0.4849 1.97118,0.7273 3.868588,0.7273 1.616292,0 2.888252,-0.2178 3.815882,-0.6535 0.927603,-0.4357 1.391412,-1.0401 1.391426,-1.8131 -1.4e-5,-0.2952 -0.09137,-0.5411 -0.274069,-0.7379 -0.309219,-0.3513 -0.780055,-0.5903 -1.412509,-0.7168 -0.632478,-0.1265 -2.319054,-0.1897 -5.059733,-0.1897 z"
         id="path3979"
         style="font-size:43.17638779px;font-weight:bold;fill:#a02c2c;fill-opacity:1;-inkscape-font-specification:Shonar Bangla Bold" />
      <path
         d="m 98.601543,1040.4508 0.548138,0.4005 c -0.773029,1.4477 -1.732269,2.5229 -2.877723,3.2256 -1.145478,0.7027 -2.357705,1.0541 -3.636683,1.0541 -2.178502,0 -3.917784,-0.8187 -5.21785,-2.4561 -1.300072,-1.6374 -1.950106,-3.6085 -1.950105,-5.9135 -10e-7,-2.2207 0.5903,-4.1743 1.770907,-5.8609 1.433586,-2.0379 3.401258,-3.0569 5.903021,-3.0569 1.686567,0 3.028801,0.4252 4.026704,1.2755 0.997878,0.8503 1.496824,1.7955 1.496838,2.8355 -1.4e-5,0.6747 -0.200295,1.2087 -0.600843,1.6023 -0.400576,0.3935 -0.931145,0.5903 -1.591708,0.5903 -0.674643,0 -1.236835,-0.2284 -1.686577,-0.6852 -0.449765,-0.4568 -0.730861,-1.2614 -0.843289,-2.4139 -0.05623,-0.7449 -0.21786,-1.2579 -0.484891,-1.539 -0.281106,-0.2952 -0.597339,-0.4427 -0.9487,-0.4427 -0.562201,0 -1.040064,0.2951 -1.433591,0.8854 -0.604364,0.8995 -0.906542,2.2769 -0.906536,4.1321 -6e-6,1.532 0.242439,2.9972 0.727337,4.3957 0.484884,1.3984 1.156,2.442 2.013352,3.1307 0.632457,0.506 1.384389,0.7589 2.255797,0.7589 0.576236,0 1.12086,-0.1335 1.633873,-0.4005 0.512987,-0.2671 1.11383,-0.773 1.802529,-1.5179 z"
         id="path3981"
         style="font-size:43.17638779px;font-weight:bold;fill:#a02c2c;fill-opacity:1;-inkscape-font-specification:Shonar Bangla Bold" />
      <path
         d="m 116.90092,1028.3285 0,12.7758 c -2e-5,1.2509 0.11593,2.0274 0.34785,2.3296 0.23189,0.3022 0.70624,0.4954 1.42305,0.5798 l 0,0.6324 -6.6409,0 0,-2.1715 c -0.78708,0.9277 -1.57063,1.6023 -2.35066,2.0239 -0.78005,0.4217 -1.64794,0.6325 -2.60366,0.6325 -0.92762,0 -1.74983,-0.2811 -2.46662,-0.8433 -0.7168,-0.5622 -1.19466,-1.2227 -1.43359,-1.9817 -0.23893,-0.759 -0.3584,-2.0801 -0.3584,-3.9635 l 0,-6.4722 c 0,-1.2228 -0.11595,-1.9852 -0.34785,-2.2874 -0.23191,-0.3022 -0.70626,-0.5025 -1.42305,-0.6009 l 0,-0.6535 6.6409,0 0,11.1525 c -1e-5,1.1665 0.0562,1.9185 0.16865,2.2558 0.11243,0.3373 0.28812,0.5938 0.52706,0.7695 0.23892,0.1757 0.51299,0.2635 0.82221,0.2635 0.42163,0 0.80111,-0.1124 1.13844,-0.3373 0.46379,-0.3092 1.02599,-0.9206 1.68657,-1.8342 l 0,-8.728 c -10e-6,-1.2228 -0.11596,-1.9852 -0.34785,-2.2874 -0.23192,-0.3022 -0.70627,-0.5025 -1.42305,-0.6009 l 0,-0.6535 z"
         id="path3983"
         style="font-size:43.17638779px;font-weight:bold;fill:#a02c2c;fill-opacity:1;-inkscape-font-specification:Shonar Bangla Bold" />
      <path
         d="m 127.52635,1022.3622 0,5.9663 3.87913,0 0,1.7287 -3.87913,0 0,10.0773 c -10e-6,0.9417 0.0422,1.5496 0.12649,1.8236 0.0843,0.2741 0.23893,0.4955 0.46381,0.6641 0.22487,0.1687 0.42867,0.253 0.61139,0.253 0.75895,0 1.47574,-0.5762 2.15038,-1.7287 l 0.52706,0.3794 c -0.47787,1.1244 -1.0998,1.9642 -1.86578,2.5194 -0.76599,0.5551 -1.67604,0.8327 -2.73014,0.8327 -1.02601,0 -1.89741,-0.2881 -2.6142,-0.8643 -0.7168,-0.5763 -1.17358,-1.2228 -1.37034,-1.9396 -0.1265,-0.3935 -0.18975,-1.4617 -0.18974,-3.2045 l 0,-8.8124 -2.12931,0 0,-0.6114 c 1.47576,-1.0259 2.72663,-2.1117 3.75264,-3.2572 1.02599,-1.1454 1.9255,-2.4209 2.69852,-3.8264 z"
         id="path3985"
         style="font-size:43.17638779px;font-weight:bold;fill:#a02c2c;fill-opacity:1;-inkscape-font-specification:Shonar Bangla Bold" />
    </g>
    <path
       d="m 552.12468,641.15436 a 5.2903934,5.2903934 0 1 1 -10.58078,0 5.2903934,5.2903934 0 1 1 10.58078,0 z"
       transform="matrix(0.40886732,0,0,0.40886732,-113.03743,786.53734)"
       id="path3008"
       style="fill:#a02c2c;fill-opacity:1;fill-rule:nonzero;stroke:#000000;stroke-width:0;stroke-linecap:round;stroke-linejoin:round;stroke-miterlimit:4;stroke-opacity:1;stroke-dasharray:none;display:inline" />
    <path
       d="m 30.511683,1023.1602 c 4.51841,3.3112 9.03682,3.8919 13.55523,0.2884 z"
       id="path3780"
       style="fill:#a02c2c;stroke:#000000;stroke-width:0;stroke-linecap:round;stroke-linejoin:round;stroke-miterlimit:4;stroke-opacity:1;stroke-dasharray:none;display:inline" />
  </g>
</svg>
