<!-- Created with Inkscape (http://www.inkscape.org/) -->
<svg xmlns:rdf="http://www.w3.org/1999/02/22-rdf-syntax-ns#" xmlns="http://www.w3.org/2000/svg" height="60" width="60" version="1.2" xmlns:cc="http://creativecommons.org/ns#" xmlns:xlink="http://www.w3.org/1999/xlink" xmlns:dc="http://purl.org/dc/elements/1.1/">
<defs></defs>
<metadata>
<rdf:RDF>
<cc:Work rdf:about="">
<dc:format>image/svg+xml</dc:format>
<dc:type rdf:resource="http://purl.org/dc/dcmitype/StillImage"/>
<dc:title/>
</cc:Work>
</rdf:RDF>
</metadata>
<g transform="translate(5.0544574e-7,-992.375)">
<path stroke-linejoin="round" d="m59.07,1022.4a29.07,29.065,0,1,1,-58.14,0,29.07,29.065,0,1,1,58.14,0z" fill-rule="nonzero" stroke="#a02c2c" stroke-linecap="round" stroke-miterlimit="4" stroke-dasharray="none" stroke-width="1.85984349" fill="#cc7373"/>
<path stroke-linejoin="round" d="m28.197,1041.7c-8.174-0.9952-14.648-6.4535-16.88-14.232-2.9251-10.193,3.4832-20.883,14.184-23.661,6.1473-1.5957,12.89,0.3524,17.805,5.1439,6.3798,6.2197,7.6572,15.683,3.1513,23.346-1.288,2.1903-4.0863,5.0285-6.3973,6.4889-3.2051,2.0257-8.4926,3.3247-11.863,2.9144zm6.5462-13.806c0-0.128-1.0744-1.4177-2.3875-2.8663l-2.3875-2.6339,4.272-0.2184,4.272-0.2183-4.5526-0.078-4.5526-0.078,2.8664-2.8756c3.7755-3.7878,3.6933-4.3334-0.11032-0.7329-1.6372,1.5496-3.1446,2.8178-3.3498,2.8178-0.20518,0-0.61303-0.3415-0.90634-0.7588-1.0131-1.4412-4.3536-4.8274-4.5598-4.6219-0.11376,0.1139,0.97099,1.5038,2.4106,3.0901l2.6174,2.8835-3.8582,0.22-3.8582,0.22,3.5571,0.076,3.5571,0.076-2.155,2.1744c-2.7793,2.8045-2.2172,2.8093,0.88966,0l2.403-2.167,2.4202,2.6195c1.3311,1.4407,2.4797,2.7718,2.5525,2.9579,0.14836,0.3794,0.8596,0.467,0.8596,0.106z" fill-rule="nonzero" stroke="#a02c2c" stroke-linecap="round" stroke-miterlimit="4" stroke-dasharray="none" stroke-width="1.58426118" fill="#FFF"/>
<flowRoot style="letter-spacing:0px;word-spacing:0px;" font-weight="normal" xml:space="preserve" transform="matrix(0.0802139,0,0,0.0802139,-16.06925,1009.4671)" font-style="normal" font-stretch="normal" line-height="125%" font-size="72px" font-variant="normal" font-family="Shonar Bangla" fill="#000000"><flowRegion><rect height="93.75" width="331.25" y="569.03" x="200"/></flowRegion><flowPara/></flowRoot>
</g>
</svg>
