<svg xmlns="http://www.w3.org/2000/svg" height="24" viewBox="0 0 24 24" width="24"><path fill="#eb7b1d" d="M24 12c0 6.628-5.372 12-12 12S0 18.63 0 12C0 5.373 5.373 0 12 0s12 5.373 12 12z"/><g fill="#fff"><path d="M7.12 15.29c1.033 0 1.87.84 1.87 1.874 0 1.034-.837 1.87-1.87 1.87s-1.873-.836-1.873-1.87c0-1.034.838-1.873 1.872-1.873zM5.25 12.444c1.754 0 3.402.686 4.643 1.93 1.24 1.248 1.924 2.91 1.924 4.676h2.702c0-5.133-4.16-9.31-9.27-9.31v2.704zM5.253 7.65c6.252 0 11.34 5.117 11.34 11.402h2.7c0-7.777-6.297-14.104-14.04-14.104V7.65z"/></g></svg>